<?xml version="1.0" encoding="UTF-8" standalone="no"?>
<!DOCTYPE svg PUBLIC "-//W3C//DTD SVG 1.1//EN" "http://www.w3.org/Graphics/SVG/1.1/DTD/svg11.dtd">
<svg xmlns="http://www.w3.org/2000/svg" version="1.1" viewBox="0.00 0.00 1940.00 500.00">
<clipPath id="clipping-path-0">
<path d="
  M 0.00 0.00
  L 1940.00 0.00
  L 1940.00 500.00
  L 0.00 500.00
  L 0.00 0.00
  Z"/>
</clipPath>
<g stroke-width="2.00" fill="none" stroke-linecap="butt" clip-path="url(#clipping-path-0)">
<path stroke="#7d6f53" vector-effect="non-scaling-stroke" d="
  M 477.90 283.72
  L 334.52 284.01
  A 0.51 0.50 -0.0 0 0 334.01 284.51
  L 333.99 324.13
  A 0.87 0.87 0.0 0 1 333.12 325.00
  L 272.30 325.00
  A 0.31 0.31 0.0 0 1 271.99 324.69
  L 272.13 161.29"
/>
<path stroke="#7d6f53" vector-effect="non-scaling-stroke" d="
  M 286.25 160.83
  L 333.20 161.10
  A 0.89 0.89 0.0 0 0 334.09 160.21
  L 333.96 120.01"
/>
<path stroke="#7d6f53" vector-effect="non-scaling-stroke" d="
  M 795.95 325.03
  L 734.59 325.03
  A 0.59 0.58 -90.0 0 1 734.01 324.44
  L 734.00 243.75
  A 0.75 0.75 0.0 0 0 733.25 243.00
  L 652.69 243.00
  A 0.69 0.69 0.0 0 0 652.00 243.69
  L 652.02 297.97"
/>
<path stroke="#7d6f53" vector-effect="non-scaling-stroke" d="
  M 651.33 325.05
  L 591.63 325.03
  A 0.70 0.70 0.0 0 1 590.93 324.33
  L 590.96 161.23"
/>
<path stroke="#7d6f53" vector-effect="non-scaling-stroke" d="
  M 604.29 160.83
  L 651.37 161.09
  A 0.70 0.69 0.0 0 0 652.07 160.40
  L 651.98 120.01"
/>
<path stroke="#7d6f53" vector-effect="non-scaling-stroke" d="
  M 988.97 242.89
  L 1010.51 243.02
  A 0.51 0.50 0.6 0 1 1011.01 243.52
  L 1010.98 283.48
  A 0.51 0.50 0.6 0 0 1011.49 283.99
  L 1052.27 284.04
  Q 1053.01 284.04 1053.01 283.30
  L 1053.00 120.05"
/>
<path stroke="#7d6f53" vector-effect="non-scaling-stroke" d="
  M 1113.09 284.32
  L 1053.48 284.01
  Q 1053.00 284.01 1053.00 284.50
  L 1052.98 323.75
  Q 1052.98 324.98 1051.75 324.98
  L 1011.75 325.01
  A 0.76 0.75 90.0 0 1 1011.00 324.25
  L 1011.00 284.50
  A 0.50 0.50 0.0 0 0 1010.50 284.00
  L 970.49 284.00
  A 0.51 0.51 0.0 0 1 969.98 283.49
  L 970.08 243.78
  Q 970.08 242.99 969.28 242.99
  L 909.56 243.00
  Q 909.00 243.00 909.00 242.44
  L 909.01 120.04"
/>
<path stroke="#7d6f53" vector-effect="non-scaling-stroke" d="
  M 1411.85 161.02
  L 1289.30 161.00
  A 0.30 0.30 0.0 0 0 1289.00 161.30
  L 1289.00 201.29
  Q 1289.00 201.92 1289.63 201.92
  L 1365.00 201.96"
/>
<path stroke="#7d6f53" vector-effect="non-scaling-stroke" d="
  M 1370.26 243.03
  L 1289.71 243.01
  A 0.71 0.71 0.0 0 0 1289.00 243.72
  L 1289.00 283.53
  Q 1289.00 283.95 1289.42 283.95
  L 1323.51 283.93"
/>
<path stroke="#7d6f53" vector-effect="non-scaling-stroke" d="
  M 1411.27 325.28
  L 1227.63 325.01
  A 0.64 0.63 -0.0 0 1 1226.99 324.38
  L 1226.98 161.21"
/>
<path stroke="#7d6f53" vector-effect="non-scaling-stroke" d="
  M 1241.75 160.60
  L 1288.13 161.08
  A 0.93 0.92 0.0 0 0 1289.07 160.15
  L 1289.03 120.03"
/>
<path stroke="#7d6f53" vector-effect="non-scaling-stroke" d="
  M 1729.94 284.00
  L 1669.43 284.02
  A 0.43 0.43 0.0 0 0 1669.00 284.45
  L 1668.98 323.75
  Q 1668.98 324.99 1667.75 324.99
  L 1525.75 325.02
  A 0.75 0.74 -0.0 0 1 1525.00 324.28
  L 1525.00 120.21"
/>
<path stroke="#7d6f53" vector-effect="non-scaling-stroke" d="
  M 352.99 242.95
  L 415.22 243.03
  A 0.78 0.78 0.0 0 0 416.00 242.25
  L 416.00 161.75
  A 0.75 0.75 0.0 0 0 415.25 161.00
  L 334.30 161.00
  A 0.24 0.24 0.0 0 0 334.06 161.24
  L 334.08 216.01"
/>
<path stroke="#7d6f53" vector-effect="non-scaling-stroke" d="
  M 734.04 161.63
  A 0.65 0.65 0.0 0 0 733.39 160.98
  L 652.65 160.98
  A 0.65 0.65 0.0 0 0 652.00 161.63
  L 652.00 201.35
  A 0.65 0.65 0.0 0 0 652.65 202.00
  L 733.39 202.00
  A 0.65 0.65 0.0 0 0 734.04 201.35
  L 734.04 161.63"
/>
<path stroke="#7d6f53" vector-effect="non-scaling-stroke" d="
  M 1605.00 283.96
  L 1668.21 284.04
  Q 1669.00 284.04 1669.00 283.25
  L 1669.01 161.99
  Q 1669.01 161.08 1668.11 161.03
  Q 1664.95 160.86 1661.35 160.88
  Q 1623.15 161.11 1587.64 160.95
  A 0.63 0.62 -0.4 0 0 1587.01 161.58
  L 1587.20 216.00"
/>
</g>
<g fill="#402a2e">
<path d="
  M 333.96 120.01
  L 334.09 160.21
  A 0.89 0.89 0.0 0 1 333.20 161.10
  L 286.25 160.83
  L 333.96 120.01
  Z"
/>
<path d="
  M 651.98 120.01
  L 652.07 160.40
  A 0.70 0.69 0.0 0 1 651.37 161.09
  L 604.29 160.83
  L 651.98 120.01
  Z"
/>
<path d="
  M 909.01 120.04
  L 909.00 242.44
  Q 909.00 243.00 909.56 243.00
  L 969.28 242.99
  Q 970.08 242.99 970.08 243.78
  L 969.98 283.49
  A 0.51 0.51 0.0 0 0 970.49 284.00
  L 1010.50 284.00
  A 0.50 0.50 0.0 0 1 1011.00 284.50
  L 1011.00 324.25
  A 0.76 0.75 90.0 0 0 1011.75 325.01
  L 1051.75 324.98
  Q 1052.98 324.98 1052.98 323.75
  L 1053.00 284.50
  Q 1053.00 284.01 1053.48 284.01
  L 1113.09 284.32
  Q 1111.98 285.81 1111.34 286.35
  Q 1082.50 311.24 1053.79 336.27
  C 1052.21 337.65 1050.22 339.05 1048.00 339.02
  C 1043.64 338.95 1037.47 338.04 1033.92 341.09
  Q 1011.49 360.34 990.07 379.23
  A 3.22 3.16 23.8 0 1 987.95 380.03
  L 948.50 379.99
  A 0.50 0.49 0.0 0 1 948.00 379.50
  L 948.00 339.75
  Q 948.00 339.00 947.25 339.00
  L 907.50 339.00
  Q 907.00 339.00 907.00 338.50
  L 907.00 299.25
  Q 907.00 298.00 905.75 298.00
  L 845.50 298.00
  A 0.50 0.50 0.0 0 1 845.00 297.50
  L 845.00 175.46
  Q 845.00 174.87 845.45 174.48
  L 909.01 120.04
  Z"
/>
<path d="
  M 1053.00 120.05
  L 1053.01 283.30
  Q 1053.01 284.04 1052.27 284.04
  L 1011.49 283.99
  A 0.51 0.50 0.6 0 1 1010.98 283.48
  L 1011.01 243.52
  A 0.51 0.50 0.6 0 0 1010.51 243.02
  L 988.97 242.89
  Q 989.09 191.28 988.95 177.24
  C 988.91 173.20 990.53 173.27 993.00 171.14
  Q 1021.55 146.49 1049.97 121.70
  Q 1050.61 121.15 1051.43 120.78
  Q 1052.17 120.45 1053.00 120.05
  Z"
/>
<path d="
  M 1289.03 120.03
  L 1289.07 160.15
  A 0.93 0.92 0.0 0 1 1288.13 161.08
  L 1241.75 160.60
  Q 1244.74 157.59 1247.89 154.89
  Q 1266.10 139.27 1284.10 123.42
  Q 1285.28 122.38 1286.48 121.62
  Q 1287.69 120.84 1289.03 120.03
  Z"
/>
<path d="
  M 1525.00 120.21
  L 1525.00 324.28
  A 0.75 0.74 -0.0 0 0 1525.75 325.02
  L 1667.75 324.99
  Q 1668.98 324.99 1668.98 323.75
  L 1669.00 284.45
  A 0.43 0.43 0.0 0 1 1669.43 284.02
  L 1729.94 284.00
  Q 1728.36 285.20 1727.25 286.27
  Q 1724.81 288.63 1724.72 288.71
  Q 1692.52 316.42 1674.90 331.90
  Q 1670.29 335.95 1666.68 338.51
  Q 1666.22 338.84 1665.65 338.87
  Q 1661.48 339.08 1656.20 338.96
  Q 1652.51 338.88 1649.79 341.23
  Q 1627.87 360.13 1606.34 379.06
  A 3.85 3.80 24.1 0 1 1603.81 380.01
  L 1461.50 380.00
  A 0.51 0.50 0.6 0 1 1461.00 379.50
  L 1461.00 176.78
  A 3.18 3.15 -24.6 0 1 1461.79 174.69
  Q 1464.25 171.90 1467.30 169.29
  Q 1493.52 146.87 1519.61 124.12
  Q 1522.13 121.92 1525.00 120.21
  Z"
/>
<rect x="652.00" y="160.98" width="82.04" height="41.02" rx="0.65"/>
<path d="
  M 1605.00 283.96
  L 1605.00 216.95
  A 0.94 0.93 -0.0 0 0 1604.06 216.02
  L 1587.20 216.00
  L 1587.01 161.58
  A 0.63 0.62 -0.4 0 1 1587.64 160.95
  Q 1623.15 161.11 1661.35 160.88
  Q 1664.95 160.86 1668.11 161.03
  Q 1669.01 161.08 1669.01 161.99
  L 1669.00 283.25
  Q 1669.00 284.04 1668.21 284.04
  L 1605.00 283.96
  Z"
/>
<path d="
  M 352.99 242.95
  L 352.98 216.88
  A 0.86 0.86 0.0 0 0 352.12 216.02
  L 334.08 216.01
  L 334.06 161.24
  A 0.24 0.24 0.0 0 1 334.30 161.00
  L 415.25 161.00
  A 0.75 0.75 0.0 0 1 416.00 161.75
  L 416.00 242.25
  A 0.78 0.78 0.0 0 1 415.22 243.03
  L 352.99 242.95
  Z"
/>
<path d="
  M 1411.85 161.02
  Q 1408.26 164.08 1405.85 166.13
  Q 1388.67 180.75 1371.71 195.62
  Q 1371.64 195.69 1368.54 198.03
  Q 1366.41 199.65 1365.00 201.96
  L 1289.63 201.92
  Q 1289.00 201.92 1289.00 201.29
  L 1289.00 161.30
  A 0.30 0.30 0.0 0 1 1289.30 161.00
  L 1411.85 161.02
  Z"
/>
<path d="
  M 272.13 161.29
  L 271.99 324.69
  A 0.31 0.31 0.0 0 0 272.30 325.00
  L 333.12 325.00
  A 0.87 0.87 0.0 0 0 333.99 324.13
  L 334.01 284.51
  A 0.51 0.50 -0.0 0 1 334.52 284.01
  L 477.90 283.72
  Q 439.78 316.35 416.71 336.68
  C 415.14 338.06 413.60 339.02 411.49 339.02
  Q 365.73 338.95 321.24 339.04
  C 319.50 339.05 317.84 339.18 316.36 340.23
  Q 314.27 341.72 313.04 342.79
  Q 292.20 360.96 271.27 379.17
  A 3.48 3.47 24.5 0 1 268.99 380.02
  L 209.50 379.99
  A 0.50 0.49 0.0 0 1 209.00 379.50
  L 209.00 216.76
  A 3.32 3.31 69.7 0 1 210.15 214.25
  Q 240.70 187.97 270.92 161.66
  Q 271.46 161.20 272.13 161.29
  Z"
/>
<path d="
  M 590.96 161.23
  L 590.93 324.33
  A 0.70 0.70 0.0 0 0 591.63 325.03
  L 651.33 325.05
  Q 650.16 326.57 649.04 327.54
  Q 620.63 352.14 592.30 376.82
  C 590.10 378.73 588.43 380.03 585.48 380.03
  Q 556.77 380.02 527.50 379.99
  A 0.50 0.50 0.0 0 1 527.00 379.49
  L 526.99 216.75
  A 2.74 2.74 0.0 0 1 527.96 214.66
  Q 558.16 188.82 588.43 162.44
  Q 589.74 161.30 590.96 161.23
  Z"
/>
<path d="
  M 1226.98 161.21
  L 1226.99 324.38
  A 0.64 0.63 0.0 0 0 1227.63 325.01
  L 1411.27 325.28
  L 1349.26 379.11
  A 3.65 3.64 24.4 0 1 1346.86 380.01
  L 1164.63 380.00
  Q 1164.00 380.00 1164.00 379.38
  L 1163.99 216.77
  A 3.29 3.27 69.8 0 1 1165.13 214.28
  Q 1195.53 188.10 1225.91 161.64
  Q 1226.36 161.25 1226.98 161.21
  Z"
/>
<path d="
  M 795.95 325.03
  L 733.61 378.87
  A 4.78 4.77 24.6 0 1 730.50 380.02
  L 671.50 379.99
  A 0.50 0.49 0.0 0 1 671.00 379.50
  L 671.00 298.94
  Q 671.00 297.99 670.04 297.99
  L 652.02 297.97
  L 652.00 243.69
  A 0.69 0.69 0.0 0 1 652.69 243.00
  L 733.25 243.00
  A 0.75 0.75 0.0 0 1 734.00 243.75
  L 734.01 324.44
  A 0.59 0.58 90.0 0 0 734.59 325.03
  L 795.95 325.03
  Z"
/>
<path d="
  M 1370.26 243.03
  Q 1370.23 243.17 1370.21 243.31
  Q 1370.18 243.44 1370.08 243.52
  L 1323.51 283.93
  L 1289.42 283.95
  Q 1289.00 283.95 1289.00 283.53
  L 1289.00 243.72
  A 0.71 0.71 0.0 0 1 1289.71 243.01
  L 1370.26 243.03
  Z"
/>
</g>
<g fill="#bab478">
<path d="
  M 477.90 283.72
  L 334.52 284.01
  A 0.51 0.50 -0.0 0 0 334.01 284.51
  L 333.99 324.13
  A 0.87 0.87 0.0 0 1 333.12 325.00
  L 272.30 325.00
  A 0.31 0.31 0.0 0 1 271.99 324.69
  L 272.13 161.29
  L 286.25 160.83
  L 333.20 161.10
  A 0.89 0.89 0.0 0 0 334.09 160.21
  L 333.96 120.01
  L 477.47 120.00
  A 0.53 0.53 0.0 0 1 478.00 120.53
  L 477.90 283.72
  Z
  M 334.08 216.01
  L 334.13 242.36
  Q 334.13 242.87 334.64 242.88
  L 352.99 242.95
  L 415.22 243.03
  A 0.78 0.78 0.0 0 0 416.00 242.25
  L 416.00 161.75
  A 0.75 0.75 0.0 0 0 415.25 161.00
  L 334.30 161.00
  A 0.24 0.24 0.0 0 0 334.06 161.24
  L 334.08 216.01
  Z"
/>
<path d="
  M 795.95 325.03
  L 734.59 325.03
  A 0.59 0.58 -90.0 0 1 734.01 324.44
  L 734.00 243.75
  A 0.75 0.75 0.0 0 0 733.25 243.00
  L 652.69 243.00
  A 0.69 0.69 0.0 0 0 652.00 243.69
  L 652.02 297.97
  Q 652.01 310.65 651.99 323.50
  Q 651.99 324.76 651.33 325.05
  L 591.63 325.03
  A 0.70 0.70 0.0 0 1 590.93 324.33
  L 590.96 161.23
  L 604.29 160.83
  L 651.37 161.09
  A 0.70 0.69 0.0 0 0 652.07 160.40
  L 651.98 120.01
  L 733.47 120.00
  A 0.54 0.54 0.0 0 1 734.01 120.54
  L 733.98 160.24
  A 0.76 0.75 0.0 0 0 734.74 160.99
  L 795.29 161.00
  A 0.71 0.71 0.0 0 1 796.00 161.71
  L 795.95 325.03
  Z
  M 734.04 161.63
  A 0.65 0.65 0.0 0 0 733.39 160.98
  L 652.65 160.98
  A 0.65 0.65 0.0 0 0 652.00 161.63
  L 652.00 201.35
  A 0.65 0.65 0.0 0 0 652.65 202.00
  L 733.39 202.00
  A 0.65 0.65 0.0 0 0 734.04 201.35
  L 734.04 161.63
  Z"
/>
<path d="
  M 988.97 242.89
  L 1010.51 243.02
  A 0.51 0.50 0.6 0 1 1011.01 243.52
  L 1010.98 283.48
  A 0.51 0.50 0.6 0 0 1011.49 283.99
  L 1052.27 284.04
  Q 1053.01 284.04 1053.01 283.30
  L 1053.00 120.05
  L 1113.48 120.02
  A 0.52 0.52 0.0 0 1 1114.00 120.54
  Q 1114.00 201.62 1114.00 282.75
  Q 1114.00 283.32 1113.09 284.32
  L 1053.48 284.01
  Q 1053.00 284.01 1053.00 284.50
  L 1052.98 323.75
  Q 1052.98 324.98 1051.75 324.98
  L 1011.75 325.01
  A 0.76 0.75 90.0 0 1 1011.00 324.25
  L 1011.00 284.50
  A 0.50 0.50 0.0 0 0 1010.50 284.00
  L 970.49 284.00
  A 0.51 0.51 0.0 0 1 969.98 283.49
  L 970.08 243.78
  Q 970.08 242.99 969.28 242.99
  L 909.56 243.00
  Q 909.00 243.00 909.00 242.44
  L 909.01 120.04
  L 969.49 120.01
  A 0.51 0.51 0.0 0 1 970.00 120.52
  L 970.00 242.21
  A 0.54 0.54 0.0 0 0 970.54 242.75
  L 988.97 242.89
  Z"
/>
<path d="
  M 1411.85 161.02
  L 1289.30 161.00
  A 0.30 0.30 0.0 0 0 1289.00 161.30
  L 1289.00 201.29
  Q 1289.00 201.92 1289.63 201.92
  L 1365.00 201.96
  L 1370.11 201.96
  A 0.90 0.90 0.0 0 1 1371.01 202.86
  Q 1371.01 222.13 1370.99 241.50
  Q 1370.99 242.52 1370.26 243.03
  L 1289.71 243.01
  A 0.71 0.71 0.0 0 0 1289.00 243.72
  L 1289.00 283.53
  Q 1289.00 283.95 1289.42 283.95
  L 1323.51 283.93
  L 1411.30 283.98
  A 0.69 0.69 0.0 0 1 1411.99 284.67
  Q 1412.02 304.13 1411.99 323.75
  Q 1411.99 324.39 1411.27 325.28
  L 1227.63 325.01
  A 0.64 0.63 -0.0 0 1 1226.99 324.38
  L 1226.98 161.21
  L 1241.75 160.60
  L 1288.13 161.08
  A 0.93 0.92 0.0 0 0 1289.07 160.15
  L 1289.03 120.03
  L 1411.47 120.00
  A 0.51 0.51 0.0 0 1 1411.98 120.52
  L 1411.85 161.02
  Z"
/>
<path d="
  M 1729.94 284.00
  L 1669.43 284.02
  A 0.43 0.43 0.0 0 0 1669.00 284.45
  L 1668.98 323.75
  Q 1668.98 324.99 1667.75 324.99
  L 1525.75 325.02
  A 0.75 0.74 -0.0 0 1 1525.00 324.28
  L 1525.00 120.21
  L 1668.28 120.00
  A 0.72 0.72 0.0 0 1 1669.00 120.72
  L 1669.00 160.25
  A 0.75 0.75 0.0 0 0 1669.75 161.00
  L 1729.44 161.00
  A 0.56 0.56 0.0 0 1 1730.00 161.56
  L 1729.94 284.00
  Z
  M 1587.20 216.00
  L 1587.03 283.39
  Q 1587.03 283.89 1587.54 283.89
  L 1605.00 283.96
  L 1668.21 284.04
  Q 1669.00 284.04 1669.00 283.25
  L 1669.01 161.99
  Q 1669.01 161.08 1668.11 161.03
  Q 1664.95 160.86 1661.35 160.88
  Q 1623.15 161.11 1587.64 160.95
  A 0.63 0.62 -0.4 0 0 1587.01 161.58
  L 1587.20 216.00
  Z"
/>
</g>
</svg>
