<svg width="667" height="407" viewBox="0 0 667 407" fill="none" xmlns="http://www.w3.org/2000/svg">
<g filter="url(#filter0_d_0_1)">
<path d="M341.134 106L338.244 125.401L380.093 106H341.134Z" fill="#FDFCF8"/>
<path d="M658 6H322C320.895 6 320 6.89543 320 8V104C320 105.105 320.895 106 322 106H341.134H380.093H658C659.105 106 660 105.105 660 104V8C660 6.89543 659.105 6 658 6Z" fill="#FDFCF8"/>
</g>
<g filter="url(#filter1_d_0_1)">
<path d="M341 107H340.999H340L337.161 125.925L337 127L338 126.535L338.075 126.5L380 107H379H377.85L338.236 125.425L341 107Z" fill="black"/>
<path fill-rule="evenodd" clip-rule="evenodd" d="M658 5H322C320.343 5 319 6.34314 319 8V104C319 105.657 320.343 107 322 107H340H340.999L341.149 106H322C320.895 106 320 105.105 320 104V8C320 6.89543 320.895 6 322 6H658C659.105 6 660 6.89543 660 8V104C660 105.105 659.105 106 658 106H380L377.85 107H379H380H658C659.657 107 661 105.657 661 104V8C661 6.34314 659.657 5 658 5Z" fill="black"/>
</g>
<path d="M365.024 42.08C365.2 42.08 365.352 42.144 365.48 42.272C365.608 42.4 365.672 42.552 365.672 42.728V46.352C365.672 46.528 365.608 46.68 365.48 46.808C365.352 46.936 365.2 47 365.024 47H351.008C350.832 47 350.68 46.936 350.552 46.808C350.424 46.68 350.36 46.528 350.36 46.352V30.848C350.36 30.672 350.424 30.52 350.552 30.392C350.68 30.264 350.832 30.2 351.008 30.2H356.192C356.368 30.2 356.52 30.264 356.648 30.392C356.776 30.52 356.84 30.672 356.84 30.848V42.08H365.024ZM385.367 42.32C385.543 42.32 385.695 42.384 385.823 42.512C385.951 42.64 386.015 42.792 386.015 42.968V46.352C386.015 46.528 385.951 46.68 385.823 46.808C385.695 46.936 385.543 47 385.367 47H370.199C370.023 47 369.871 46.936 369.743 46.808C369.615 46.68 369.551 46.528 369.551 46.352V30.848C369.551 30.672 369.615 30.52 369.743 30.392C369.871 30.264 370.023 30.2 370.199 30.2H385.127C385.303 30.2 385.455 30.264 385.583 30.392C385.711 30.52 385.775 30.672 385.775 30.848V34.232C385.775 34.408 385.711 34.56 385.583 34.688C385.455 34.816 385.303 34.88 385.127 34.88H375.791V36.392H383.807C383.983 36.392 384.135 36.456 384.263 36.584C384.391 36.712 384.455 36.864 384.455 37.04V40.16C384.455 40.336 384.391 40.488 384.263 40.616C384.135 40.744 383.983 40.808 383.807 40.808H375.791V42.32H385.367ZM406.261 30.2C406.437 30.2 406.589 30.264 406.717 30.392C406.845 30.52 406.909 30.672 406.909 30.848V34.712C406.909 34.888 406.845 35.04 406.717 35.168C406.589 35.296 406.437 35.36 406.261 35.36H401.101V46.352C401.101 46.528 401.037 46.68 400.909 46.808C400.781 46.936 400.629 47 400.453 47H395.509C395.333 47 395.181 46.936 395.053 46.808C394.925 46.68 394.861 46.528 394.861 46.352V35.36H389.701C389.525 35.36 389.373 35.296 389.245 35.168C389.117 35.04 389.053 34.888 389.053 34.712V30.848C389.053 30.672 389.117 30.52 389.245 30.392C389.373 30.264 389.525 30.2 389.701 30.2H406.261ZM441.907 30.848C442.147 30.416 442.491 30.2 442.939 30.2H447.331C447.507 30.2 447.659 30.264 447.787 30.392C447.915 30.52 447.979 30.672 447.979 30.848V46.352C447.979 46.528 447.915 46.68 447.787 46.808C447.659 46.936 447.507 47 447.331 47H442.987C442.811 47 442.659 46.936 442.531 46.808C442.403 46.68 442.339 46.528 442.339 46.352V38.912L440.587 42.368C440.539 42.48 440.427 42.608 440.251 42.752C440.075 42.896 439.851 42.968 439.579 42.968H437.947C437.675 42.968 437.451 42.896 437.275 42.752C437.099 42.608 436.987 42.48 436.939 42.368L435.187 38.912V46.352C435.187 46.528 435.123 46.68 434.995 46.808C434.867 46.936 434.715 47 434.539 47H430.195C430.019 47 429.867 46.936 429.739 46.808C429.611 46.68 429.547 46.528 429.547 46.352V30.848C429.547 30.672 429.611 30.52 429.739 30.392C429.867 30.264 430.019 30.2 430.195 30.2H434.587C435.035 30.2 435.379 30.416 435.618 30.848L438.763 36.608L441.907 30.848ZM466.929 42.32C467.105 42.32 467.257 42.384 467.385 42.512C467.513 42.64 467.577 42.792 467.577 42.968V46.352C467.577 46.528 467.513 46.68 467.385 46.808C467.257 46.936 467.105 47 466.929 47H451.761C451.585 47 451.433 46.936 451.305 46.808C451.177 46.68 451.113 46.528 451.113 46.352V30.848C451.113 30.672 451.177 30.52 451.305 30.392C451.433 30.264 451.585 30.2 451.761 30.2H466.689C466.865 30.2 467.017 30.264 467.145 30.392C467.273 30.52 467.337 30.672 467.337 30.848V34.232C467.337 34.408 467.273 34.56 467.145 34.688C467.017 34.816 466.865 34.88 466.689 34.88H457.353V36.392H465.369C465.545 36.392 465.697 36.456 465.825 36.584C465.953 36.712 466.017 36.864 466.017 37.04V40.16C466.017 40.336 465.953 40.488 465.825 40.616C465.697 40.744 465.545 40.808 465.369 40.808H457.353V42.32H466.929ZM501.254 36.296C503.014 36.488 504.422 36.8 505.478 37.232C506.55 37.664 507.326 38.232 507.806 38.936C508.286 39.64 508.526 40.52 508.526 41.576C508.526 42.728 508.15 43.736 507.398 44.6C506.662 45.448 505.638 46.104 504.326 46.568C503.014 47.016 501.518 47.24 499.838 47.24C497.966 47.24 496.382 47.008 495.086 46.544C493.79 46.08 492.822 45.464 492.182 44.696C491.542 43.912 491.222 43.056 491.222 42.128C491.222 41.968 491.27 41.84 491.366 41.744C491.478 41.648 491.614 41.6 491.774 41.6H496.694C497.03 41.6 497.302 41.704 497.51 41.912C497.782 42.168 498.086 42.344 498.422 42.44C498.758 42.52 499.23 42.56 499.838 42.56C501.358 42.56 502.118 42.328 502.118 41.864C502.118 41.672 502.014 41.512 501.806 41.384C501.614 41.24 501.262 41.12 500.75 41.024C500.254 40.912 499.518 40.8 498.542 40.688C496.35 40.432 494.67 39.888 493.502 39.056C492.334 38.208 491.75 37.016 491.75 35.48C491.75 34.392 492.078 33.432 492.734 32.6C493.39 31.768 494.318 31.12 495.518 30.656C496.734 30.192 498.142 29.96 499.742 29.96C501.406 29.96 502.862 30.224 504.11 30.752C505.358 31.264 506.31 31.904 506.966 32.672C507.622 33.44 507.95 34.192 507.95 34.928C507.95 35.088 507.894 35.216 507.782 35.312C507.686 35.408 507.55 35.456 507.374 35.456H502.214C501.942 35.456 501.694 35.36 501.47 35.168C501.294 35.008 501.086 34.88 500.846 34.784C500.606 34.688 500.238 34.64 499.742 34.64C498.67 34.64 498.134 34.864 498.134 35.312C498.134 35.552 498.342 35.744 498.758 35.888C499.174 36.016 500.006 36.152 501.254 36.296ZM528.317 30.2C528.493 30.2 528.645 30.264 528.773 30.392C528.901 30.52 528.965 30.672 528.965 30.848V46.352C528.965 46.528 528.901 46.68 528.773 46.808C528.645 46.936 528.493 47 528.317 47H523.373C523.197 47 523.045 46.936 522.917 46.808C522.789 46.68 522.725 46.528 522.725 46.352V41.24H517.925V46.352C517.925 46.528 517.861 46.68 517.733 46.808C517.605 46.936 517.453 47 517.277 47H512.333C512.157 47 512.005 46.944 511.877 46.832C511.749 46.704 511.685 46.544 511.685 46.352V30.848C511.685 30.672 511.749 30.52 511.877 30.392C512.005 30.264 512.157 30.2 512.333 30.2H517.277C517.453 30.2 517.605 30.264 517.733 30.392C517.861 30.52 517.925 30.672 517.925 30.848V35.768H522.725V30.848C522.725 30.672 522.789 30.52 522.917 30.392C523.045 30.264 523.197 30.2 523.373 30.2H528.317ZM549.644 40.064C549.644 42.512 548.828 44.32 547.196 45.488C545.58 46.656 543.42 47.24 540.716 47.24C538.012 47.24 535.844 46.656 534.212 45.488C532.596 44.32 531.788 42.496 531.788 40.016V37.184C531.788 35.552 532.172 34.2 532.94 33.128C533.724 32.04 534.788 31.24 536.132 30.728C537.476 30.216 539.004 29.96 540.716 29.96C542.428 29.96 543.948 30.216 545.276 30.728C546.62 31.24 547.684 32.032 548.468 33.104C549.252 34.176 549.644 35.52 549.644 37.136V40.064ZM538.268 40.52C538.268 41.176 538.484 41.68 538.916 42.032C539.364 42.384 539.964 42.56 540.716 42.56C541.468 42.56 542.06 42.384 542.492 42.032C542.94 41.664 543.164 41.152 543.164 40.496V36.704C543.164 36.048 542.94 35.544 542.492 35.192C542.06 34.824 541.468 34.64 540.716 34.64C539.964 34.64 539.364 34.816 538.916 35.168C538.484 35.52 538.268 36.024 538.268 36.68V40.52ZM558.994 46.352C558.946 46.496 558.826 46.64 558.634 46.784C558.458 46.928 558.226 47 557.938 47H554.578C554.274 47 554.018 46.912 553.81 46.736C553.618 46.544 553.506 46.328 553.474 46.088L551.386 30.8V30.728C551.386 30.584 551.434 30.464 551.53 30.368C551.642 30.256 551.77 30.2 551.914 30.2H556.042C556.362 30.2 556.618 30.296 556.81 30.488C557.018 30.68 557.138 30.92 557.17 31.208L557.938 38.552L559.33 34.736C559.378 34.576 559.49 34.424 559.666 34.28C559.858 34.12 560.098 34.04 560.386 34.04H562.018C562.306 34.04 562.538 34.12 562.714 34.28C562.906 34.424 563.026 34.576 563.074 34.736L564.466 38.552L565.234 31.208C565.266 30.92 565.378 30.68 565.57 30.488C565.778 30.296 566.042 30.2 566.362 30.2H570.49C570.634 30.2 570.754 30.256 570.85 30.368C570.962 30.464 571.018 30.584 571.018 30.728V30.8L568.93 46.088C568.898 46.328 568.778 46.544 568.57 46.736C568.378 46.912 568.13 47 567.826 47H564.466C564.178 47 563.938 46.928 563.746 46.784C563.57 46.64 563.458 46.496 563.41 46.352L561.202 41.288L558.994 46.352ZM365.984 60.2C366.128 60.2 366.248 60.256 366.344 60.368C366.456 60.464 366.512 60.576 366.512 60.704C366.512 60.8 366.488 60.896 366.44 60.992L360.392 71V76.352C360.392 76.528 360.328 76.68 360.2 76.808C360.072 76.936 359.92 77 359.744 77H354.632C354.456 77 354.304 76.936 354.176 76.808C354.048 76.68 353.984 76.528 353.984 76.352V71L347.96 60.992C347.912 60.896 347.888 60.808 347.888 60.728C347.888 60.584 347.936 60.464 348.032 60.368C348.144 60.256 348.272 60.2 348.416 60.2H353.48C353.928 60.2 354.256 60.384 354.464 60.752L357.176 65.504L359.96 60.8C360.2 60.4 360.536 60.2 360.968 60.2H365.984ZM386.519 70.064C386.519 72.512 385.703 74.32 384.071 75.488C382.455 76.656 380.295 77.24 377.591 77.24C374.887 77.24 372.719 76.656 371.087 75.488C369.471 74.32 368.663 72.496 368.663 70.016V67.184C368.663 65.552 369.047 64.2 369.815 63.128C370.599 62.04 371.663 61.24 373.007 60.728C374.351 60.216 375.879 59.96 377.591 59.96C379.303 59.96 380.823 60.216 382.151 60.728C383.495 61.24 384.559 62.032 385.343 63.104C386.127 64.176 386.519 65.52 386.519 67.136V70.064ZM375.143 70.52C375.143 71.176 375.359 71.68 375.791 72.032C376.239 72.384 376.839 72.56 377.591 72.56C378.343 72.56 378.935 72.384 379.367 72.032C379.815 71.664 380.039 71.152 380.039 70.496V66.704C380.039 66.048 379.815 65.544 379.367 65.192C378.935 64.824 378.343 64.64 377.591 64.64C376.839 64.64 376.239 64.816 375.791 65.168C375.359 65.52 375.143 66.024 375.143 66.68V70.52ZM397.981 77.24C395.293 77.24 393.157 76.656 391.573 75.488C390.005 74.32 389.221 72.496 389.221 70.016V60.848C389.221 60.672 389.285 60.52 389.413 60.392C389.541 60.264 389.693 60.2 389.869 60.2H394.885C395.061 60.2 395.213 60.264 395.341 60.392C395.469 60.52 395.533 60.672 395.533 60.848V70.4C395.533 71.056 395.749 71.56 396.181 71.912C396.629 72.264 397.229 72.44 397.981 72.44C398.733 72.44 399.325 72.264 399.757 71.912C400.205 71.56 400.429 71.056 400.429 70.4V60.848C400.429 60.672 400.493 60.52 400.621 60.392C400.749 60.264 400.901 60.2 401.077 60.2H406.093C406.269 60.2 406.421 60.264 406.549 60.392C406.677 60.52 406.741 60.672 406.741 60.848V70.016C406.741 72.496 405.949 74.32 404.365 75.488C402.797 76.656 400.669 77.24 397.981 77.24ZM447.043 60.2C447.219 60.2 447.371 60.264 447.499 60.392C447.627 60.52 447.691 60.672 447.691 60.848V64.712C447.691 64.888 447.627 65.04 447.499 65.168C447.371 65.296 447.219 65.36 447.043 65.36H441.883V76.352C441.883 76.528 441.819 76.68 441.691 76.808C441.563 76.936 441.411 77 441.234 77H436.291C436.115 77 435.963 76.936 435.835 76.808C435.707 76.68 435.643 76.528 435.643 76.352V65.36H430.483C430.307 65.36 430.155 65.296 430.027 65.168C429.899 65.04 429.835 64.888 429.835 64.712V60.848C429.835 60.672 429.899 60.52 430.027 60.392C430.155 60.264 430.307 60.2 430.483 60.2H447.043ZM467.145 60.2C467.321 60.2 467.473 60.264 467.601 60.392C467.729 60.52 467.793 60.672 467.793 60.848V76.352C467.793 76.528 467.729 76.68 467.601 76.808C467.473 76.936 467.321 77 467.145 77H462.201C462.025 77 461.873 76.936 461.745 76.808C461.617 76.68 461.553 76.528 461.553 76.352V71.24H456.753V76.352C456.753 76.528 456.689 76.68 456.561 76.808C456.433 76.936 456.281 77 456.105 77H451.161C450.985 77 450.833 76.944 450.705 76.832C450.577 76.704 450.513 76.544 450.513 76.352V60.848C450.513 60.672 450.577 60.52 450.705 60.392C450.833 60.264 450.985 60.2 451.161 60.2H456.105C456.281 60.2 456.433 60.264 456.561 60.392C456.689 60.52 456.753 60.672 456.753 60.848V65.768H461.553V60.848C461.553 60.672 461.617 60.52 461.745 60.392C461.873 60.264 462.025 60.2 462.201 60.2H467.145ZM487.32 72.32C487.496 72.32 487.648 72.384 487.776 72.512C487.904 72.64 487.968 72.792 487.968 72.968V76.352C487.968 76.528 487.904 76.68 487.776 76.808C487.648 76.936 487.496 77 487.32 77H472.152C471.976 77 471.824 76.936 471.696 76.808C471.568 76.68 471.504 76.528 471.504 76.352V60.848C471.504 60.672 471.568 60.52 471.696 60.392C471.824 60.264 471.976 60.2 472.152 60.2H487.08C487.256 60.2 487.408 60.264 487.536 60.392C487.664 60.52 487.728 60.672 487.728 60.848V64.232C487.728 64.408 487.664 64.56 487.536 64.688C487.408 64.816 487.256 64.88 487.08 64.88H477.744V66.392H485.76C485.936 66.392 486.088 66.456 486.216 66.584C486.344 66.712 486.408 66.864 486.408 67.04V70.16C486.408 70.336 486.344 70.488 486.216 70.616C486.088 70.744 485.936 70.808 485.76 70.808H477.744V72.32H487.32ZM518.213 76.352C518.165 76.496 518.045 76.64 517.853 76.784C517.677 76.928 517.445 77 517.157 77H513.797C513.493 77 513.237 76.912 513.029 76.736C512.837 76.544 512.725 76.328 512.693 76.088L510.605 60.8V60.728C510.605 60.584 510.653 60.464 510.749 60.368C510.861 60.256 510.989 60.2 511.133 60.2H515.261C515.581 60.2 515.837 60.296 516.029 60.488C516.237 60.68 516.357 60.92 516.389 61.208L517.157 68.552L518.549 64.736C518.597 64.576 518.709 64.424 518.885 64.28C519.077 64.12 519.317 64.04 519.605 64.04H521.237C521.525 64.04 521.757 64.12 521.933 64.28C522.125 64.424 522.245 64.576 522.293 64.736L523.685 68.552L524.453 61.208C524.485 60.92 524.597 60.68 524.789 60.488C524.997 60.296 525.261 60.2 525.581 60.2H529.709C529.853 60.2 529.973 60.256 530.069 60.368C530.181 60.464 530.237 60.584 530.237 60.728V60.8L528.149 76.088C528.117 76.328 527.997 76.544 527.789 76.736C527.597 76.912 527.349 77 527.045 77H523.685C523.397 77 523.157 76.928 522.965 76.784C522.789 76.64 522.677 76.496 522.629 76.352L520.421 71.288L518.213 76.352ZM537.26 76.184C537.052 76.728 536.692 77 536.18 77H531.644C531.5 77 531.372 76.952 531.26 76.856C531.164 76.744 531.116 76.616 531.116 76.472L531.14 76.328L536.372 60.992C536.436 60.784 536.556 60.6 536.732 60.44C536.908 60.28 537.148 60.2 537.452 60.2H544.124C544.428 60.2 544.668 60.28 544.844 60.44C545.02 60.6 545.14 60.784 545.204 60.992L550.436 76.328L550.46 76.472C550.46 76.616 550.404 76.744 550.292 76.856C550.196 76.952 550.076 77 549.932 77H545.396C544.884 77 544.524 76.728 544.316 76.184L543.716 74.504H537.86L537.26 76.184ZM540.788 64.832L539.084 69.824H542.492L540.788 64.832ZM569.89 60.2C570.034 60.2 570.154 60.256 570.25 60.368C570.362 60.464 570.418 60.576 570.418 60.704C570.418 60.8 570.394 60.896 570.346 60.992L564.298 71V76.352C564.298 76.528 564.234 76.68 564.106 76.808C563.978 76.936 563.826 77 563.65 77H558.538C558.362 77 558.21 76.936 558.082 76.808C557.954 76.68 557.89 76.528 557.89 76.352V71L551.866 60.992C551.818 60.896 551.794 60.808 551.794 60.728C551.794 60.584 551.842 60.464 551.938 60.368C552.05 60.256 552.178 60.2 552.322 60.2H557.386C557.834 60.2 558.162 60.384 558.37 60.752L561.082 65.504L563.866 60.8C564.106 60.4 564.442 60.2 564.874 60.2H569.89ZM584.017 71.288C584.193 71.288 584.345 71.352 584.473 71.48C584.601 71.608 584.665 71.76 584.665 71.936V76.352C584.665 76.528 584.601 76.68 584.473 76.808C584.345 76.936 584.193 77 584.017 77H578.977C578.801 77 578.649 76.936 578.521 76.808C578.393 76.68 578.329 76.528 578.329 76.352V71.936C578.329 71.76 578.393 71.608 578.521 71.48C578.649 71.352 578.801 71.288 578.977 71.288H584.017ZM604.408 71.288C604.584 71.288 604.736 71.352 604.864 71.48C604.992 71.608 605.056 71.76 605.056 71.936V76.352C605.056 76.528 604.992 76.68 604.864 76.808C604.736 76.936 604.584 77 604.408 77H599.368C599.192 77 599.04 76.936 598.912 76.808C598.784 76.68 598.72 76.528 598.72 76.352V71.936C598.72 71.76 598.784 71.608 598.912 71.48C599.04 71.352 599.192 71.288 599.368 71.288H604.408ZM624.798 71.288C624.974 71.288 625.126 71.352 625.254 71.48C625.382 71.608 625.446 71.76 625.446 71.936V76.352C625.446 76.528 625.382 76.68 625.254 76.808C625.126 76.936 624.974 77 624.798 77H619.758C619.582 77 619.43 76.936 619.302 76.808C619.174 76.68 619.11 76.528 619.11 76.352V71.936C619.11 71.76 619.174 71.608 619.302 71.48C619.43 71.352 619.582 71.288 619.758 71.288H624.798Z" fill="black"/>
<path d="M81.5484 213.647V223.824H101.935V213.647H91.7419H81.5484Z" fill="#0B1013"/>
<path d="M50.9677 203.471V213.647H81.5484V203.471H71.3548V193.294V172.941H61.1613V203.471H50.9677Z" fill="#0B1013"/>
<path d="M71.3548 142.412V172.941H81.5484V152.588V142.412H71.3548Z" fill="#0B1013"/>
<path d="M81.5484 132.235V142.412H91.7419V132.235H81.5484Z" fill="#0B1013"/>
<path d="M91.7419 132.235H112.129V122.059H91.7419V132.235Z" fill="#0B1013"/>
<path d="M71.3548 132.235H81.5484V111.882H71.3548V132.235Z" fill="#0B1013"/>
<path d="M81.5484 101.706V111.882H101.935V101.706H81.5484Z" fill="#0B1013"/>
<path d="M101.935 91.5294V101.706H112.129V91.5294H101.935Z" fill="#0B1013"/>
<path d="M40.7742 213.647V223.824H50.9677V213.647H40.7742Z" fill="#0B1013"/>
<path d="M30.5806 223.824V234H40.7742V223.824H30.5806Z" fill="#0B1013"/>
<path d="M20.3871 234V244.176H30.5806V234H20.3871Z" fill="#0B1013"/>
<path d="M10.1935 244.176V264.529H20.3871V244.176H10.1935Z" fill="#0B1013"/>
<path d="M0 295.059H10.1935V264.529H0V295.059Z" fill="#0B1013"/>
<path d="M40.7742 335.765H50.9677V315.412V295.059H30.5806V284.882H20.3871V295.059H10.1935V305.235H40.7742V335.765Z" fill="#0B1013"/>
<path d="M50.9677 284.882V295.059H61.1613V284.882H50.9677Z" fill="#0B1013"/>
<path d="M61.1613 274.706V284.882H71.3548V274.706H61.1613Z" fill="#0B1013"/>
<path d="M71.3548 264.529V274.706H81.5484V264.529H71.3548Z" fill="#0B1013"/>
<path d="M50.9677 356.118H61.1613V335.765H50.9677V356.118Z" fill="#0B1013"/>
<path d="M61.1613 366.294H71.3548V356.118H61.1613V366.294Z" fill="#0B1013"/>
<path d="M71.3548 376.471H81.5484V366.294H71.3548V376.471Z" fill="#0B1013"/>
<path fill-rule="evenodd" clip-rule="evenodd" d="M224.258 407V376.471H81.5484V386.647H101.935V407H152.903V386.647H173.29V407H224.258ZM112.129 396.824V386.647H122.323H142.71V396.824H122.323H112.129ZM183.484 396.824V386.647H214.065V396.824H183.484Z" fill="#0B1013"/>
<path d="M265.032 356.118V345.941H254.839V356.118H265.032Z" fill="#0B1013"/>
<path d="M244.645 376.471V366.294H224.258V376.471H244.645Z" fill="#0B1013"/>
<path d="M254.839 366.294V356.118H244.645V366.294H254.839Z" fill="#0B1013"/>
<path d="M275.226 345.941V325.588H265.032V345.941H275.226Z" fill="#0B1013"/>
<path d="M275.226 213.647H265.032V234H275.226V264.529V284.882V325.588H285.419V295.059H305.806V284.882H295.613H285.419V274.706V244.176H295.613V234H285.419V223.824H275.226V213.647Z" fill="#0B1013"/>
<path d="M305.806 244.176H295.613V264.529H305.806V244.176Z" fill="#0B1013"/>
<path d="M316 264.529H305.806V284.882H316V264.529Z" fill="#0B1013"/>
<path d="M234.452 223.824V213.647H224.258V223.824H234.452Z" fill="#0B1013"/>
<path d="M244.645 213.647V203.471H234.452V213.647H244.645Z" fill="#0B1013"/>
<path d="M265.032 203.471H254.839V213.647H265.032V203.471Z" fill="#0B1013"/>
<path d="M254.839 203.471V132.235H244.645V142.412V193.294V203.471H254.839Z" fill="#0B1013"/>
<path d="M244.645 122.059H234.452V132.235H244.645V122.059Z" fill="#0B1013"/>
<path d="M265.032 111.882H254.839V132.235H265.032V111.882Z" fill="#0B1013"/>
<path d="M254.839 101.706H224.258V111.882H234.452H254.839V101.706Z" fill="#0B1013"/>
<path d="M112.129 81.3529V91.5294H122.323V81.3529H112.129Z" fill="#0B1013"/>
<path d="M122.323 71.1765V81.3529H142.71V71.1765H122.323Z" fill="#0B1013"/>
<path d="M183.484 61H142.71V71.1765H152.903H183.484V61Z" fill="#0B1013"/>
<path d="M203.871 71.1765H183.484V81.3529H193.677H203.871V71.1765Z" fill="#0B1013"/>
<path d="M214.065 81.3529H203.871V91.5294H214.065V81.3529Z" fill="#0B1013"/>
<path d="M224.258 91.5294H214.065V101.706H224.258V91.5294Z" fill="#0B1013"/>
<path d="M112.129 91.5294V101.706H122.323V91.5294H112.129Z" fill="#0B1013"/>
<path d="M112.129 91.5294V101.706H122.323V91.5294H112.129Z" fill="#643B2E"/>
<path d="M101.935 101.706V111.882H112.129V101.706H101.935Z" fill="#643B2E"/>
<path d="M91.7419 122.059H112.129V111.882H101.935H81.5484V132.235H91.7419V122.059Z" fill="#D7B98E"/>
<path d="M91.7419 132.235V142.412H112.129V132.235H91.7419Z" fill="#643B2E"/>
<path d="M112.129 101.706V111.882V122.059H122.323V101.706H112.129Z" fill="#9A6B4A"/>
<path d="M163.097 132.235V122.059H132.516V132.235H142.71H163.097Z" fill="#643B2E"/>
<path d="M132.516 132.235V122.059H122.323V132.235H132.516Z" fill="#0B1013"/>
<path d="M163.097 152.588V132.235H142.71V152.588H163.097Z" fill="#0B1013"/>
<path d="M142.71 132.235H132.516V152.588H142.71V132.235Z" fill="#EEEEEE"/>
<path d="M173.29 111.882H163.097V122.059H173.29V111.882Z" fill="#643B2E"/>
<path d="M122.323 81.3529V91.5294V101.706H132.516V91.5294H142.71V81.3529H122.323Z" fill="#9A6B4A"/>
<path d="M142.71 71.1765V81.3529H152.903V71.1765H142.71Z" fill="#9A6B4A"/>
<path d="M183.484 111.882V122.059H193.677V111.882H183.484Z" fill="#643B2E"/>
<path d="M193.677 122.059V132.235H203.871H224.258V122.059H193.677Z" fill="#643B2E"/>
<path d="M224.258 152.588V132.235H203.871V152.588H224.258Z" fill="#0B1013"/>
<path d="M203.871 132.235H193.677V152.588H203.871V132.235Z" fill="#EEEEEE"/>
<path d="M224.258 122.059V132.235H234.452V122.059H224.258Z" fill="#9A6B4A"/>
<path d="M244.645 132.235H234.452V142.412H244.645V132.235Z" fill="#9A6B4A"/>
<path d="M244.645 132.235H254.839V111.882H234.452V122.059H244.645V132.235Z" fill="#643B2E"/>
<path d="M152.903 172.941H203.871V162.765H152.903V172.941Z" fill="#F05E1C"/>
<path d="M152.903 172.941V183.118H203.871V172.941H152.903Z" fill="#0B1013"/>
<path d="M142.71 203.471H152.903V193.294H203.871V203.471H214.065V172.941H203.871V183.118H152.903V172.941H142.71V203.471Z" fill="#F05E1C"/>
<path d="M224.258 213.647H203.871V223.824H224.258V213.647Z" fill="#9A6B4A"/>
<path d="M234.452 203.471H224.258V213.647H234.452V203.471Z" fill="#9A6B4A"/>
<path d="M244.645 203.471V193.294H234.452V203.471H244.645Z" fill="#9A6B4A"/>
<path d="M254.839 203.471H244.645V213.647V223.824H254.839V244.176H265.032V264.529H275.226V234H265.032V213.647H254.839V203.471Z" fill="#9A6B4A"/>
<path d="M265.032 284.882V325.588H275.226V284.882H265.032Z" fill="#9A6B4A"/>
<path d="M295.613 264.529V244.176H285.419V274.706H295.613V264.529Z" fill="#643B2E"/>
<path d="M285.419 284.882H295.613V274.706H285.419V284.882Z" fill="#9A6B4A"/>
<path d="M254.839 356.118V345.941H244.645V356.118H254.839Z" fill="#9A6B4A"/>
<path d="M265.032 345.941V325.588H254.839V345.941H265.032Z" fill="#9A6B4A"/>
<path d="M244.645 366.294V356.118H214.065V366.294H173.29V356.118H132.516V345.941H122.323V325.588H112.129V305.235H101.935V264.529H112.129V254.353H122.323V244.176H173.29V234H132.516V223.824H101.935V234H91.7419V244.176H81.5484V234H50.9677V244.176H40.7742V254.353H30.5806V274.706H20.3871V284.882H30.5806V295.059H50.9677V284.882H61.1613V274.706H71.3548V264.529H81.5484V254.353H91.7419V264.529H81.5484V274.706V284.882H71.3548V305.235H61.1613V315.412H50.9677V335.765H61.1613V356.118H71.3548V366.294H81.5484V376.471H224.258V366.294H244.645Z" fill="#9A6B4A"/>
<path d="M183.484 386.647V396.824H214.065V386.647H183.484Z" fill="#31150D"/>
<path d="M142.71 396.824V386.647H122.323V396.824H142.71Z" fill="#9A5034"/>
<path d="M112.129 386.647V396.824H122.323V386.647H112.129Z" fill="#6A4028"/>
<path d="M61.1613 284.882V295.059H50.9677V315.412H61.1613V305.235H71.3548V284.882H61.1613Z" fill="#643B2E"/>
<path d="M71.3548 274.706V284.882H81.5484V274.706H71.3548Z" fill="#643B2E"/>
<path fill-rule="evenodd" clip-rule="evenodd" d="M224.258 101.706H214.065H203.871V91.5294H193.677V81.3529H183.484V71.1765H152.903V81.3529H142.71V91.5294H132.516V101.706H122.323V122.059H132.516H163.097V111.882H173.29V122.059H163.097V132.235V152.588H142.71H132.516V132.235H122.323V122.059H112.129V132.235V142.412V203.471H122.323V213.647H132.516H163.097V223.824H132.516V234H173.29V244.176H122.323V254.353H112.129V264.529H101.935V305.235H112.129V325.588H122.323V345.941H132.516V356.118H173.29V366.294H214.065V356.118H244.645V345.941H254.839V325.588H265.032V284.882H275.226V264.529H265.032V244.176H254.839V223.824H244.645V213.647H234.452V223.824H224.258H203.871V213.647H224.258V203.471H234.452V193.294H244.645V142.412H234.452V132.235H224.258V152.588H203.871H193.677V132.235V122.059H183.484V111.882H193.677V122.059H224.258H234.452V111.882H224.258V101.706ZM152.903 203.471H142.71V172.941H152.903V162.765H203.871V172.941H214.065V203.471H203.871V193.294H152.903V203.471Z" fill="#D7B98E"/>
<path d="M101.935 213.647V223.824H132.516V213.647H122.323H101.935Z" fill="#643B2E"/>
<path d="M163.097 223.824V213.647H132.516V223.824H163.097Z" fill="#9A6B4A"/>
<path d="M20.3871 295.059V284.882V274.706H30.5806V254.353H40.7742V244.176H50.9677V234H81.5484V244.176H91.7419V234H101.935V223.824H81.5484V213.647H50.9677V223.824H40.7742V234H30.5806V244.176H20.3871V264.529H10.1935V295.059H20.3871Z" fill="#643B2E"/>
<path d="M71.3548 203.471H81.5484V193.294H71.3548V203.471Z" fill="#643B2E"/>
<path d="M81.5484 254.353V264.529H91.7419V254.353H81.5484Z" fill="#0B1013"/>
<path d="M81.5484 203.471V213.647H91.7419V203.471H81.5484Z" fill="#643B2E"/>
<path d="M203.871 81.3529H193.677V91.5294H203.871V81.3529Z" fill="#9A6B4A"/>
<path d="M214.065 91.5294H203.871V101.706H214.065V91.5294Z" fill="#9A6B4A"/>
<path fill-rule="evenodd" clip-rule="evenodd" d="M81.5484 142.412H91.7419V152.588H81.5484V142.412Z" fill="#643B2E"/>
<path d="M81.5484 172.941H71.3548V193.294H81.5484V203.471H91.7419V213.647H101.935H122.323V203.471H112.129V142.412H91.7419V152.588H81.5484V172.941Z" fill="#9A6B4A"/>
<path d="M305.806 284.882V264.529H295.613V274.706V284.882H305.806Z" fill="#D7B98E"/>
<defs>
<filter id="filter0_d_0_1" x="308" y="1" width="358" height="137.401" filterUnits="userSpaceOnUse" color-interpolation-filters="sRGB">
<feFlood flood-opacity="0" result="BackgroundImageFix"/>
<feColorMatrix in="SourceAlpha" type="matrix" values="0 0 0 0 0 0 0 0 0 0 0 0 0 0 0 0 0 0 127 0" result="hardAlpha"/>
<feOffset dx="-3" dy="4"/>
<feGaussianBlur stdDeviation="4.5"/>
<feComposite in2="hardAlpha" operator="out"/>
<feColorMatrix type="matrix" values="0 0 0 0 0 0 0 0 0 0 0 0 0 0 0 0 0 0 0.25 0"/>
<feBlend mode="normal" in2="BackgroundImageFix" result="effect1_dropShadow_0_1"/>
<feBlend mode="normal" in="SourceGraphic" in2="effect1_dropShadow_0_1" result="shape"/>
</filter>
<filter id="filter1_d_0_1" x="307" y="0" width="360" height="140" filterUnits="userSpaceOnUse" color-interpolation-filters="sRGB">
<feFlood flood-opacity="0" result="BackgroundImageFix"/>
<feColorMatrix in="SourceAlpha" type="matrix" values="0 0 0 0 0 0 0 0 0 0 0 0 0 0 0 0 0 0 127 0" result="hardAlpha"/>
<feOffset dx="-3" dy="4"/>
<feGaussianBlur stdDeviation="4.5"/>
<feComposite in2="hardAlpha" operator="out"/>
<feColorMatrix type="matrix" values="0 0 0 0 0 0 0 0 0 0 0 0 0 0 0 0 0 0 0.25 0"/>
<feBlend mode="normal" in2="BackgroundImageFix" result="effect1_dropShadow_0_1"/>
<feBlend mode="normal" in="SourceGraphic" in2="effect1_dropShadow_0_1" result="shape"/>
</filter>
</defs>
</svg>
