<svg  viewBox="0 0 54 51" fill="none" xmlns="http://www.w3.org/2000/svg">
<path d="M2.95068 45.9V51H8.05068V45.9H2.95068Z" />
<path d="M48.8507 5.1H53.9507V1.11464e-06H48.8507V5.1Z" />
<path d="M48.8507 45.9V51H53.9507V45.9H48.8507Z" />
<path d="M8.05068 2.22928e-07L2.95068 0L2.95068 5.1H8.05068V2.22928e-07Z" />
<path d="M8.05068 40.8V45.9H13.1507H18.2507V40.8H23.3507V35.7H28.4507H33.5507V40.8H38.6507V45.9H43.7507H48.8507V40.8V35.7H43.7507V30.6H38.6507V25.5V20.4H43.7507V15.3H48.8507V10.2V5.1H43.7507H38.6507V10.2H33.5507V15.3H28.4507H23.3507V10.2H18.2507V5.1L13.1507 5.1L8.05068 5.1L8.05068 10.2L8.05068 15.3L13.1507 15.3L13.1507 20.4H18.2507L18.2507 25.5V30.6H13.1507V35.7H8.05068V40.8Z" />
</svg>
