<svg  viewBox="0 0 55 55" fill="none" xmlns="http://www.w3.org/2000/svg">
<path d="M26.9061 0H30.8292V3.92857H34.7523V7.85714H38.6754V11.7857H42.5984V15.7143H38.6754V19.6429H34.7523V23.5714H30.8292V27.5H26.9061V19.6429H22.9831V23.5714H19.06V27.5H15.1369V35.3571H19.06V39.2857H22.9831V43.2143H30.8292H34.7523V39.2857H38.6754V35.3571H42.5984V27.5H50.4446V31.4286H54.3677V39.2857H50.4446V47.1429H46.5215V51.0714H38.6754V55H30.8292H22.9831H19.06V51.0714H11.2138V47.1429H7.29075V39.2857H3.36768V35.3571V27.5V23.5714H7.29075V15.7143H11.2138V11.7857H19.06V7.85714H26.9061V0Z" />
</svg>
