<svg width="415" height="360" viewBox="0 0 415 360" fill="none" xmlns="http://www.w3.org/2000/svg">
<path d="M330 285L395 220H185V275L175 285H330Z" fill="#4E3034"/>
<path fill-rule="evenodd" clip-rule="evenodd" d="M195 65V20L140 75H185V130H230V175H295V65H195Z" fill="#4E3034"/>
<path d="M85 75L20 140V340L85 275V75Z" fill="#4E3034"/>
<path d="M185 275H85L20 340H120L175 285L185 275Z" fill="#4E3034"/>
<rect x="85" y="75" width="100" height="200" fill="#D4CE7F"/>
<rect x="295" y="20" width="100" height="200" fill="#D4CE7F"/>
<rect x="295" y="175" width="45" height="110" transform="rotate(90 295 175)" fill="#D4CE7F"/>
<path d="M85 65H80.8579L77.9289 67.9289L12.9289 132.929L10 135.858V140V340V350H20H120H124.142L127.071 347.071L179.142 295H330H334.142L337.071 292.071L402.071 227.071L405 224.142V220V20V10H395H195H190.858L187.929 12.9289L135.858 65H85Z" stroke="white" stroke-width="20"/>
<rect x="295" y="20" width="45" height="100" transform="rotate(90 295 20)" fill="#D4CE7F"/>
<rect x="195" y="20" width="10" height="45" fill="#A29C68"/>
<path d="M295 55H300H305V58.1034V175H295V55Z" fill="#A29C68"/>
<rect x="85" y="75" width="10" height="200" fill="#A29C68"/>
<path d="M185 220L185 215L185 210L188 210L395 210L395 220L185 220Z" fill="#A29C68"/>
<path d="M91 275L91 265L94 265L185 265L185 275L91 275Z" fill="#A29C68"/>
<path d="M201 65L201 55L204 55L295 55L295 65L201 65Z" fill="#A29C68"/>
<path d="M228 175V132H185" stroke="white" stroke-width="4"/>
<path d="M228 175V133H185" stroke="white" stroke-width="4"/>
<path d="M224 175V137H185" stroke="white" stroke-width="10"/>
</svg>
