<?xml version="1.0" encoding="UTF-8" standalone="no"?>
<!DOCTYPE svg PUBLIC "-//W3C//DTD SVG 1.1//EN" "http://www.w3.org/Graphics/SVG/1.1/DTD/svg11.dtd">
<svg xmlns="http://www.w3.org/2000/svg" version="1.1" viewBox="0.00 0.00 671.00 565.00">
<clipPath id="clipping-path-0">
<path d="
  M 0.00 0.00
  L 671.00 0.00
  L 671.00 565.00
  L 0.00 565.00
  L 0.00 0.00
  Z"/>
</clipPath>
<g stroke-width="2.00" fill="none" stroke-linecap="butt" clip-path="url(#clipping-path-0)">
<path stroke="#7d6f53" vector-effect="non-scaling-stroke" d="
  M 670.22 321.18
  L 350.55 321.02
  A 0.45 0.45 0.0 0 0 350.10 321.47
  L 350.02 400.02
  A 1.04 1.04 0.0 0 1 348.98 401.06
  L 191.26 401.08
  A 1.28 1.28 0.0 0 1 189.98 399.80
  L 189.98 80.17"
/>
<path stroke="#7d6f53" vector-effect="non-scaling-stroke" d="
  M 258.44 79.94
  L 349.39 80.03
  Q 350.05 80.03 350.05 79.37
  L 349.99 0.77"
/>
<path stroke="#7d6f53" vector-effect="non-scaling-stroke" d="
  M 510.84 80.57
  A 0.57 0.57 0.0 0 0 510.27 80.00
  L 350.61 80.00
  A 0.57 0.57 0.0 0 0 350.04 80.57
  L 350.04 240.43
  A 0.57 0.57 0.0 0 0 350.61 241.00
  L 510.27 241.00
  A 0.57 0.57 0.0 0 0 510.84 240.43
  L 510.84 80.57"
/>
<path stroke="#7d6f53" vector-effect="non-scaling-stroke" d="
  M 360.03 160.18
  L 360.05 174.97"
/>
<path stroke="#957553" vector-effect="non-scaling-stroke" d="
  M 360.05 174.97
  L 359.98 180.07"
/>
<path stroke="#7d6f53" vector-effect="non-scaling-stroke" d="
  M 359.98 180.07
  L 360.03 210.99"
/>
<path stroke="#957553" vector-effect="non-scaling-stroke" d="
  M 360.03 210.99
  L 360.03 216.08"
/>
<path stroke="#7d6f53" vector-effect="non-scaling-stroke" d="
  M 360.03 216.08
  L 360.05 230.13
  Q 360.05 230.95 360.87 230.96
  L 374.84 231.02"
/>
<path stroke="#957553" vector-effect="non-scaling-stroke" d="
  M 374.84 231.02
  L 380.15 230.97"
/>
<path stroke="#7d6f53" vector-effect="non-scaling-stroke" d="
  M 380.15 230.97
  L 389.93 230.97"
/>
<path stroke="#7e433d" vector-effect="non-scaling-stroke" d="
  M 389.93 230.97
  L 400.04 230.98"
/>
<path stroke="#7d6f53" vector-effect="non-scaling-stroke" d="
  M 400.04 230.98
  L 409.85 231.00"
/>
<path stroke="#957553" vector-effect="non-scaling-stroke" d="
  M 409.85 231.00
  L 415.19 231.00"
/>
<path stroke="#7d6f53" vector-effect="non-scaling-stroke" d="
  M 415.19 231.00
  L 465.98 231.00"
/>
<path stroke="#7e433d" vector-effect="non-scaling-stroke" d="
  M 465.98 231.00
  L 500.12 231.04
  A 0.90 0.89 -0.3 0 0 501.02 230.14
  L 500.94 194.85"
/>
<path stroke="#7d6f53" vector-effect="non-scaling-stroke" d="
  M 500.94 194.85
  L 500.94 165.30"
/>
<path stroke="#7e433d" vector-effect="non-scaling-stroke" d="
  M 500.94 165.30
  L 501.05 90.59
  A 0.60 0.60 0.0 0 0 500.45 89.99
  L 466.00 90.07"
/>
<path stroke="#7d6f53" vector-effect="non-scaling-stroke" d="
  M 466.00 90.07
  L 450.82 90.05"
/>
<path stroke="#957553" vector-effect="non-scaling-stroke" d="
  M 450.82 90.05
  L 446.09 90.04"
/>
<path stroke="#7d6f53" vector-effect="non-scaling-stroke" d="
  M 446.09 90.04
  L 430.44 90.08"
/>
<path stroke="#7e433d" vector-effect="non-scaling-stroke" d="
  M 430.44 90.08
  L 394.81 90.10"
/>
<path stroke="#7d6f53" vector-effect="non-scaling-stroke" d="
  M 394.81 90.10
  L 365.21 90.04"
/>
<path stroke="#7e433d" vector-effect="non-scaling-stroke" d="
  M 365.21 90.04
  L 360.78 90.02
  A 0.75 0.74 0.0 0 0 360.03 90.76
  L 360.03 160.18"
/>
<path stroke="#bb8862" vector-effect="non-scaling-stroke" d="
  M 365.21 90.04
  L 365.04 98.72
  Q 365.02 100.09 366.38 100.03
  L 368.90 99.91
  A 0.97 0.96 88.3 0 1 369.91 100.87
  L 369.95 114.05
  A 0.99 0.98 -89.2 0 1 368.94 115.04
  L 365.92 114.95
  A 0.88 0.88 0.0 0 0 365.02 115.83
  L 365.01 134.02
  A 1.00 1.00 0.0 0 0 366.02 135.02
  L 368.96 134.99
  A 0.98 0.97 -0.3 0 1 369.95 135.96
  L 369.90 149.05
  A 0.95 0.95 0.0 0 1 368.94 150.00
  L 365.85 149.97
  A 0.81 0.81 0.0 0 0 365.03 150.77
  L 364.99 158.93
  A 1.17 1.17 0.0 0 1 363.85 160.09
  L 360.03 160.18"
/>
<path stroke="#bb8862" vector-effect="non-scaling-stroke" d="
  M 394.81 90.10
  L 394.94 93.89
  A 1.14 1.13 -0.8 0 0 396.08 94.99
  L 404.24 95.01
  A 0.74 0.73 -0.0 0 1 404.98 95.74
  L 405.00 99.11
  A 0.86 0.85 -0.3 0 0 405.86 99.95
  L 419.15 99.94
  A 0.84 0.84 0.0 0 0 419.99 99.10
  L 420.00 96.01
  A 1.00 0.99 -89.7 0 1 420.99 95.02
  L 428.99 94.98
  Q 429.57 94.98 429.67 94.41
  L 430.44 90.08"
/>
<path stroke="#d2ba78" vector-effect="non-scaling-stroke" d="
  M 446.09 90.04
  L 446.04 104.12
  A 0.74 0.73 -89.6 0 1 445.31 104.85
  L 410.76 104.96
  A 0.79 0.78 -0.4 0 0 409.98 105.74
  L 409.97 139.02
  A 0.99 0.99 0.0 0 1 408.98 140.01
  L 376.14 139.96
  A 1.15 1.15 0.0 0 0 374.99 141.11
  L 374.95 174.05
  A 0.94 0.94 0.0 0 1 374.01 174.99
  L 360.05 174.97"
/>
<path stroke="#d2ba78" vector-effect="non-scaling-stroke" d="
  M 450.82 90.05
  L 451.07 104.18
  A 0.79 0.79 0.0 0 0 451.86 104.96
  Q 468.01 104.93 484.50 105.01
  Q 484.92 105.01 485.91 104.50"
/>
<path stroke="#d38d62" vector-effect="non-scaling-stroke" d="
  M 485.91 104.50
  Q 485.96 104.86 486.39 104.91
  Q 487.98 105.10 489.91 104.98
  Q 491.02 104.90 491.01 106.02
  L 490.98 108.96
  A 1.06 1.06 0.0 0 1 489.93 110.02
  L 485.77 110.07"
/>
<path stroke="#d2ba78" vector-effect="non-scaling-stroke" d="
  M 485.77 110.07
  L 451.62 110.02
  A 0.58 0.58 0.0 0 0 451.03 110.60
  L 451.07 169.91"
/>
<path stroke="#d38d62" vector-effect="non-scaling-stroke" d="
  M 451.07 169.91
  L 446.01 169.89"
/>
<path stroke="#d2ba78" vector-effect="non-scaling-stroke" d="
  M 446.01 169.89
  L 445.96 110.72
  A 0.72 0.71 89.2 0 0 445.24 110.01
  L 416.01 110.06
  A 0.97 0.96 88.6 0 0 415.05 111.08
  Q 415.87 128.10 414.89 144.43
  Q 414.86 144.99 414.30 145.01
  Q 397.43 145.46 380.64 144.99
  Q 380.12 144.98 380.12 145.50
  L 380.01 179.44
  Q 380.01 180.00 379.45 180.00
  L 359.98 180.07"
/>
<path stroke="#bb8862" vector-effect="non-scaling-stroke" d="
  M 500.94 165.30
  Q 499.00 164.68 496.65 165.17
  Q 496.12 165.28 496.11 165.82
  L 496.01 168.94
  A 0.98 0.98 0.0 0 1 495.06 169.90
  L 486.81 170.17
  Q 486.30 170.18 486.25 170.69
  L 485.94 173.95
  A 1.16 1.15 -87.3 0 1 484.79 175.00
  L 481.85 175.00
  Q 481.20 175.00 481.16 175.65
  L 480.90 179.24
  A 0.76 0.75 -89.1 0 1 480.19 179.94
  L 477.00 180.11
  Q 476.40 180.14 476.34 180.75
  L 475.60 189.30
  A 0.69 0.68 -88.6 0 1 474.94 189.93
  L 471.95 190.02
  Q 471.19 190.04 471.14 190.80
  L 470.92 193.80
  Q 470.84 194.95 469.69 194.96
  L 462.28 195.01
  Q 461.05 195.01 461.02 193.78
  L 460.94 190.82
  Q 460.92 190.10 460.19 190.08
  L 456.86 189.98
  Q 456.11 189.95 456.08 189.20
  L 455.93 185.95
  Q 455.91 185.39 455.36 185.27
  Q 453.02 184.74 450.82 185.07"
/>
<path stroke="#d38d62" vector-effect="non-scaling-stroke" d="
  M 450.82 185.07
  L 446.13 185.25"
/>
<path stroke="#bb8862" vector-effect="non-scaling-stroke" d="
  M 446.13 185.25
  Q 443.39 184.78 442.16 185.08
  Q 440.66 185.45 440.97 186.96
  Q 441.27 188.43 440.71 189.51
  Q 440.45 190.01 439.90 190.01
  L 437.03 190.03
  Q 436.35 190.03 436.28 190.72
  L 435.94 194.20
  A 0.90 0.89 -87.2 0 1 435.05 195.01
  L 430.97 195.01
  Q 430.20 195.01 430.16 195.78
  L 429.98 199.03
  A 1.01 1.00 1.5 0 1 428.97 199.98
  L 420.79 200.03
  A 0.69 0.69 0.0 0 0 420.10 200.70
  L 419.97 205.00
  A 0.98 0.97 -89.1 0 1 419.00 205.95
  L 405.75 206.02
  A 0.73 0.73 0.0 0 0 405.02 206.75
  L 404.95 220.03
  A 0.98 0.97 -89.7 0 1 403.97 221.01
  L 400.78 221.00
  A 0.66 0.66 0.0 0 0 400.11 221.65
  L 400.04 230.98"
/>
<path stroke="#bb8862" vector-effect="non-scaling-stroke" d="
  M 389.93 230.97
  L 389.93 221.65
  Q 389.93 221.00 389.27 221.00
  L 386.04 221.00
  A 0.96 0.96 0.0 0 1 385.08 220.04
  L 385.13 206.78
  Q 385.13 206.08 385.84 206.06
  L 389.05 205.98
  A 0.78 0.78 0.0 0 0 389.81 205.20
  L 389.83 185.55
  Q 389.83 185.02 389.30 185.01
  L 385.78 184.99
  A 0.79 0.79 0.0 0 1 385.00 184.15
  Q 385.40 177.45 385.16 170.97
  A 0.86 0.86 0.0 0 1 385.98 170.08
  L 389.27 169.95
  A 0.48 0.48 0.0 0 0 389.73 169.48
  L 390.05 160.58
  Q 390.07 159.99 390.67 159.99
  L 393.47 160.00
  Q 394.93 160.00 394.96 158.53
  L 395.02 155.93
  Q 395.04 155.06 395.90 155.05
  L 403.99 154.95
  Q 404.91 154.94 404.93 154.01
  L 404.99 151.29
  Q 405.02 150.09 406.22 150.07
  L 419.21 149.88
  Q 419.67 149.87 419.72 149.41
  Q 420.44 142.66 420.04 136.22
  A 1.07 1.06 -3.2 0 1 421.05 135.10
  L 424.26 134.93
  A 0.71 0.71 0.0 0 0 424.94 134.23
  L 425.02 125.99
  A 1.00 0.99 -89.7 0 1 426.01 125.00
  L 435.08 124.97
  A 0.86 0.86 0.0 0 1 435.94 125.82
  L 436.08 134.10
  A 0.91 0.91 0.0 0 0 436.98 134.99
  L 440.13 135.02
  A 0.72 0.71 -89.6 0 1 440.84 135.75
  L 440.73 149.23
  Q 440.73 149.94 440.02 149.95
  L 436.74 150.00
  A 0.52 0.52 0.0 0 0 436.23 150.52
  L 436.24 164.28
  A 0.61 0.61 0.0 0 0 436.81 164.89
  L 440.23 165.16
  A 0.62 0.62 0.0 0 1 440.80 165.73
  L 441.08 169.24
  A 0.53 0.52 88.7 0 0 441.58 169.72
  L 446.01 169.89"
/>
<path stroke="#bb8862" vector-effect="non-scaling-stroke" d="
  M 451.07 169.91
  L 455.07 169.77
  Q 455.68 169.75 455.75 169.14
  L 456.07 165.94
  Q 456.14 165.28 456.81 165.22
  L 460.10 164.91
  Q 460.80 164.85 460.84 164.15
  L 461.06 160.85
  Q 461.11 160.05 461.91 160.03
  L 465.10 159.97
  Q 465.90 159.95 465.92 159.15
  L 466.03 155.87
  A 0.86 0.86 0.0 0 1 466.88 155.03
  L 470.07 154.98
  Q 470.73 154.97 470.86 154.33
  Q 471.15 152.98 470.95 151.43
  A 1.26 1.26 0.0 0 1 472.16 150.02
  L 475.23 149.94
  A 0.69 0.69 0.0 0 0 475.90 149.28
  L 476.04 145.67
  A 0.57 0.56 89.5 0 1 476.57 145.12
  L 479.90 144.93
  Q 480.92 144.87 480.94 143.85
  L 481.01 141.19
  Q 481.04 140.08 479.93 140.05
  L 476.99 139.98
  A 1.01 1.01 0.0 0 1 476.00 138.98
  L 475.98 135.62
  Q 475.98 135.01 475.37 135.01
  L 471.75 134.99
  A 0.74 0.74 0.0 0 1 471.01 134.25
  L 470.99 130.63
  A 0.61 0.61 0.0 0 0 470.38 130.02
  L 467.37 130.00
  Q 466.00 129.99 466.00 128.62
  L 465.99 121.28
  Q 465.99 120.06 467.22 120.04
  L 475.25 119.97
  A 0.73 0.72 -0.4 0 0 475.97 119.25
  L 475.99 116.01
  Q 475.99 115.02 476.99 115.02
  L 485.23 114.99
  Q 485.80 114.99 485.90 114.42
  Q 486.24 112.42 485.77 110.07"
/>
<path stroke="#bb8862" vector-effect="non-scaling-stroke" d="
  M 466.00 90.07
  L 466.04 93.84
  A 1.16 1.16 0.0 0 0 467.19 94.99
  L 475.01 95.02
  Q 476.00 95.02 475.99 96.01
  L 475.97 98.96
  A 1.00 1.00 0.0 0 0 476.96 99.97
  L 485.11 100.05
  A 0.89 0.88 -89.0 0 1 485.98 100.96
  L 485.91 104.50"
/>
<path stroke="#d2ba78" vector-effect="non-scaling-stroke" d="
  M 380.15 230.97
  L 380.04 211.89
  A 0.91 0.91 0.0 0 0 379.13 210.99
  L 360.03 210.99"
/>
<path stroke="#d2ba78" vector-effect="non-scaling-stroke" d="
  M 446.13 185.25
  L 446.03 210.19
  A 0.80 0.79 -89.6 0 1 445.24 210.98
  L 410.97 210.97
  A 1.00 1.00 0.0 0 0 409.97 211.96
  L 409.85 231.00"
/>
<path stroke="#bb8862" vector-effect="non-scaling-stroke" d="
  M 500.94 194.85
  L 496.73 195.04
  Q 496.02 195.07 496.01 195.78
  L 495.99 198.87
  Q 495.98 199.97 494.88 199.99
  L 491.84 200.04
  A 0.65 0.65 0.0 0 0 491.20 200.67
  L 490.86 210.18
  A 0.81 0.81 0.0 0 1 490.08 210.96
  L 486.80 211.08
  A 0.80 0.80 0.0 0 0 486.03 211.86
  L 485.94 215.22
  Q 485.92 215.95 485.19 215.97
  L 481.64 216.06
  A 0.65 0.65 0.0 0 0 481.01 216.71
  L 480.98 220.04
  A 0.91 0.91 0.0 0 1 480.09 220.94
  L 471.92 221.06
  A 0.87 0.87 0.0 0 0 471.06 221.89
  L 470.92 225.44
  A 0.62 0.62 0.0 0 1 470.31 226.03
  L 466.75 226.05
  A 0.71 0.71 0.0 0 0 466.04 226.75
  L 465.98 231.00"
/>
<path stroke="#d2ba78" vector-effect="non-scaling-stroke" d="
  M 415.19 231.00
  L 415.13 216.87
  A 0.83 0.83 0.0 0 1 415.96 216.04
  L 450.30 216.00
  Q 450.90 216.00 450.93 215.41
  Q 451.64 200.19 450.82 185.07"
/>
<path stroke="#d2ba78" vector-effect="non-scaling-stroke" d="
  M 374.84 231.02
  L 374.89 216.97
  A 0.98 0.98 0.0 0 0 373.90 215.99
  L 360.03 216.08"
/>
</g>
<g fill="#402a2e">
<path d="
  M 349.99 0.77
  L 350.05 79.37
  Q 350.05 80.03 349.39 80.03
  L 258.44 79.94
  L 349.99 0.77
  Z"
/>
<path d="
  M 510.84 240.43
  A 0.57 0.57 0.0 0 1 510.27 241.00
  L 350.61 241.00
  A 0.57 0.57 0.0 0 1 350.04 240.43
  L 350.04 80.57
  A 0.57 0.57 0.0 0 1 350.61 80.00
  L 510.27 80.00
  A 0.57 0.57 0.0 0 1 510.84 80.57
  L 510.84 240.43
  Z
  M 360.03 160.18
  L 360.05 174.97
  L 359.98 180.07
  L 360.03 210.99
  L 360.03 216.08
  L 360.05 230.13
  Q 360.05 230.95 360.87 230.96
  L 374.84 231.02
  L 380.15 230.97
  L 389.93 230.97
  L 400.04 230.98
  L 409.85 231.00
  L 415.19 231.00
  L 465.98 231.00
  L 500.12 231.04
  A 0.90 0.89 -0.3 0 0 501.02 230.14
  L 500.94 194.85
  L 500.94 165.30
  L 501.05 90.59
  A 0.60 0.60 0.0 0 0 500.45 89.99
  L 466.00 90.07
  L 450.82 90.05
  L 446.09 90.04
  L 430.44 90.08
  L 394.81 90.10
  L 365.21 90.04
  L 360.78 90.02
  A 0.75 0.74 0.0 0 0 360.03 90.76
  L 360.03 160.18
  Z"
/>
<path d="
  M 189.98 80.17
  L 189.98 399.80
  A 1.28 1.28 0.0 0 0 191.26 401.08
  L 348.98 401.06
  A 1.04 1.04 0.0 0 0 350.02 400.02
  L 350.10 321.47
  A 0.45 0.45 0.0 0 1 350.55 321.02
  L 670.22 321.18
  L 482.03 484.36
  A 2.63 2.63 0.0 0 1 480.31 485.00
  Q 365.36 485.01 256.25 485.07
  Q 253.00 485.08 251.73 486.18
  Q 210.40 522.27 169.41 557.93
  Q 165.23 561.57 160.99 565.00
  L 0.00 565.00
  L 0.00 246.65
  Q 0.53 244.74 2.79 242.79
  Q 94.36 163.50 185.86 84.12
  Q 189.14 81.26 189.98 80.17
  Z"
/>
</g>
<g fill="#bab478">
<path d="
  M 351.37 0.00
  L 671.00 0.00
  L 671.00 320.05
  L 670.22 321.18
  L 350.55 321.02
  A 0.45 0.45 0.0 0 0 350.10 321.47
  L 350.02 400.02
  A 1.04 1.04 0.0 0 1 348.98 401.06
  L 191.26 401.08
  A 1.28 1.28 0.0 0 1 189.98 399.80
  L 189.98 80.17
  L 258.44 79.94
  L 349.39 80.03
  Q 350.05 80.03 350.05 79.37
  L 349.99 0.77
  Q 350.45 0.34 351.37 0.00
  Z
  M 510.84 80.57
  A 0.57 0.57 0.0 0 0 510.27 80.00
  L 350.61 80.00
  A 0.57 0.57 0.0 0 0 350.04 80.57
  L 350.04 240.43
  A 0.57 0.57 0.0 0 0 350.61 241.00
  L 510.27 241.00
  A 0.57 0.57 0.0 0 0 510.84 240.43
  L 510.84 80.57
  Z"
/>
<path d="
  M 365.21 90.04
  L 394.81 90.10
  L 394.94 93.89
  A 1.14 1.13 -0.8 0 0 396.08 94.99
  L 404.24 95.01
  A 0.74 0.73 -0.0 0 1 404.98 95.74
  L 405.00 99.11
  A 0.86 0.85 -0.3 0 0 405.86 99.95
  L 419.15 99.94
  A 0.84 0.84 0.0 0 0 419.99 99.10
  L 420.00 96.01
  A 1.00 0.99 -89.7 0 1 420.99 95.02
  L 428.99 94.98
  Q 429.57 94.98 429.67 94.41
  L 430.44 90.08
  L 446.09 90.04
  L 446.04 104.12
  A 0.74 0.73 -89.6 0 1 445.31 104.85
  L 410.76 104.96
  A 0.79 0.78 -0.4 0 0 409.98 105.74
  L 409.97 139.02
  A 0.99 0.99 0.0 0 1 408.98 140.01
  L 376.14 139.96
  A 1.15 1.15 0.0 0 0 374.99 141.11
  L 374.95 174.05
  A 0.94 0.94 0.0 0 1 374.01 174.99
  L 360.05 174.97
  L 360.03 160.18
  L 363.85 160.09
  A 1.17 1.17 0.0 0 0 364.99 158.93
  L 365.03 150.77
  A 0.81 0.81 0.0 0 1 365.85 149.97
  L 368.94 150.00
  A 0.95 0.95 0.0 0 0 369.90 149.05
  L 369.95 135.96
  A 0.98 0.97 -0.3 0 0 368.96 134.99
  L 366.02 135.02
  A 1.00 1.00 0.0 0 1 365.01 134.02
  L 365.02 115.83
  A 0.88 0.88 0.0 0 1 365.92 114.95
  L 368.94 115.04
  A 0.99 0.98 -89.2 0 0 369.95 114.05
  L 369.91 100.87
  A 0.97 0.96 88.3 0 0 368.90 99.91
  L 366.38 100.03
  Q 365.02 100.09 365.04 98.72
  L 365.21 90.04
  Z"
/>
<path d="
  M 466.00 90.07
  L 466.04 93.84
  A 1.16 1.16 0.0 0 0 467.19 94.99
  L 475.01 95.02
  Q 476.00 95.02 475.99 96.01
  L 475.97 98.96
  A 1.00 1.00 0.0 0 0 476.96 99.97
  L 485.11 100.05
  A 0.89 0.88 -89.0 0 1 485.98 100.96
  L 485.91 104.50
  Q 484.92 105.01 484.50 105.01
  Q 468.01 104.93 451.86 104.96
  A 0.79 0.79 0.0 0 1 451.07 104.18
  L 450.82 90.05
  L 466.00 90.07
  Z"
/>
<path d="
  M 446.01 169.89
  L 441.58 169.72
  A 0.53 0.52 88.7 0 1 441.08 169.24
  L 440.80 165.73
  A 0.62 0.62 0.0 0 0 440.23 165.16
  L 436.81 164.89
  A 0.61 0.61 0.0 0 1 436.24 164.28
  L 436.23 150.52
  A 0.52 0.52 0.0 0 1 436.74 150.00
  L 440.02 149.95
  Q 440.73 149.94 440.73 149.23
  L 440.84 135.75
  A 0.72 0.71 -89.6 0 0 440.13 135.02
  L 436.98 134.99
  A 0.91 0.91 0.0 0 1 436.08 134.10
  L 435.94 125.82
  A 0.86 0.86 0.0 0 0 435.08 124.97
  L 426.01 125.00
  A 1.00 0.99 -89.7 0 0 425.02 125.99
  L 424.94 134.23
  A 0.71 0.71 0.0 0 1 424.26 134.93
  L 421.05 135.10
  A 1.07 1.06 -3.2 0 0 420.04 136.22
  Q 420.44 142.66 419.72 149.41
  Q 419.67 149.87 419.21 149.88
  L 406.22 150.07
  Q 405.02 150.09 404.99 151.29
  L 404.93 154.01
  Q 404.91 154.94 403.99 154.95
  L 395.90 155.05
  Q 395.04 155.06 395.02 155.93
  L 394.96 158.53
  Q 394.93 160.00 393.47 160.00
  L 390.67 159.99
  Q 390.07 159.99 390.05 160.58
  L 389.73 169.48
  A 0.48 0.48 0.0 0 1 389.27 169.95
  L 385.98 170.08
  A 0.86 0.86 0.0 0 0 385.16 170.97
  Q 385.40 177.45 385.00 184.15
  A 0.79 0.79 0.0 0 0 385.78 184.99
  L 389.30 185.01
  Q 389.83 185.02 389.83 185.55
  L 389.81 205.20
  A 0.78 0.78 0.0 0 1 389.05 205.98
  L 385.84 206.06
  Q 385.13 206.08 385.13 206.78
  L 385.08 220.04
  A 0.96 0.96 0.0 0 0 386.04 221.00
  L 389.27 221.00
  Q 389.93 221.00 389.93 221.65
  L 389.93 230.97
  L 380.15 230.97
  L 380.04 211.89
  A 0.91 0.91 0.0 0 0 379.13 210.99
  L 360.03 210.99
  L 359.98 180.07
  L 379.45 180.00
  Q 380.01 180.00 380.01 179.44
  L 380.12 145.50
  Q 380.12 144.98 380.64 144.99
  Q 397.43 145.46 414.30 145.01
  Q 414.86 144.99 414.89 144.43
  Q 415.87 128.10 415.05 111.08
  A 0.97 0.96 88.6 0 1 416.01 110.06
  L 445.24 110.01
  A 0.72 0.71 89.2 0 1 445.96 110.72
  L 446.01 169.89
  Z"
/>
<path d="
  M 485.77 110.07
  Q 486.24 112.42 485.90 114.42
  Q 485.80 114.99 485.23 114.99
  L 476.99 115.02
  Q 475.99 115.02 475.99 116.01
  L 475.97 119.25
  A 0.73 0.72 -0.4 0 1 475.25 119.97
  L 467.22 120.04
  Q 465.99 120.06 465.99 121.28
  L 466.00 128.62
  Q 466.00 129.99 467.37 130.00
  L 470.38 130.02
  A 0.61 0.61 0.0 0 1 470.99 130.63
  L 471.01 134.25
  A 0.74 0.74 0.0 0 0 471.75 134.99
  L 475.37 135.01
  Q 475.98 135.01 475.98 135.62
  L 476.00 138.98
  A 1.01 1.01 0.0 0 0 476.99 139.98
  L 479.93 140.05
  Q 481.04 140.08 481.01 141.19
  L 480.94 143.85
  Q 480.92 144.87 479.90 144.93
  L 476.57 145.12
  A 0.57 0.56 89.5 0 0 476.04 145.67
  L 475.90 149.28
  A 0.69 0.69 0.0 0 1 475.23 149.94
  L 472.16 150.02
  A 1.26 1.26 0.0 0 0 470.95 151.43
  Q 471.15 152.98 470.86 154.33
  Q 470.73 154.97 470.07 154.98
  L 466.88 155.03
  A 0.86 0.86 0.0 0 0 466.03 155.87
  L 465.92 159.15
  Q 465.90 159.95 465.10 159.97
  L 461.91 160.03
  Q 461.11 160.05 461.06 160.85
  L 460.84 164.15
  Q 460.80 164.85 460.10 164.91
  L 456.81 165.22
  Q 456.14 165.28 456.07 165.94
  L 455.75 169.14
  Q 455.68 169.75 455.07 169.77
  L 451.07 169.91
  L 451.03 110.60
  A 0.58 0.58 0.0 0 1 451.62 110.02
  L 485.77 110.07
  Z"
/>
<path d="
  M 500.94 165.30
  L 500.94 194.85
  L 496.73 195.04
  Q 496.02 195.07 496.01 195.78
  L 495.99 198.87
  Q 495.98 199.97 494.88 199.99
  L 491.84 200.04
  A 0.65 0.65 0.0 0 0 491.20 200.67
  L 490.86 210.18
  A 0.81 0.81 0.0 0 1 490.08 210.96
  L 486.80 211.08
  A 0.80 0.80 0.0 0 0 486.03 211.86
  L 485.94 215.22
  Q 485.92 215.95 485.19 215.97
  L 481.64 216.06
  A 0.65 0.65 0.0 0 0 481.01 216.71
  L 480.98 220.04
  A 0.91 0.91 0.0 0 1 480.09 220.94
  L 471.92 221.06
  A 0.87 0.87 0.0 0 0 471.06 221.89
  L 470.92 225.44
  A 0.62 0.62 0.0 0 1 470.31 226.03
  L 466.75 226.05
  A 0.71 0.71 0.0 0 0 466.04 226.75
  L 465.98 231.00
  L 415.19 231.00
  L 415.13 216.87
  A 0.83 0.83 0.0 0 1 415.96 216.04
  L 450.30 216.00
  Q 450.90 216.00 450.93 215.41
  Q 451.64 200.19 450.82 185.07
  Q 453.02 184.74 455.36 185.27
  Q 455.91 185.39 455.93 185.95
  L 456.08 189.20
  Q 456.11 189.95 456.86 189.98
  L 460.19 190.08
  Q 460.92 190.10 460.94 190.82
  L 461.02 193.78
  Q 461.05 195.01 462.28 195.01
  L 469.69 194.96
  Q 470.84 194.95 470.92 193.80
  L 471.14 190.80
  Q 471.19 190.04 471.95 190.02
  L 474.94 189.93
  A 0.69 0.68 -88.6 0 0 475.60 189.30
  L 476.34 180.75
  Q 476.40 180.14 477.00 180.11
  L 480.19 179.94
  A 0.76 0.75 -89.1 0 0 480.90 179.24
  L 481.16 175.65
  Q 481.20 175.00 481.85 175.00
  L 484.79 175.00
  A 1.16 1.15 -87.3 0 0 485.94 173.95
  L 486.25 170.69
  Q 486.30 170.18 486.81 170.17
  L 495.06 169.90
  A 0.98 0.98 0.0 0 0 496.01 168.94
  L 496.11 165.82
  Q 496.12 165.28 496.65 165.17
  Q 499.00 164.68 500.94 165.30
  Z"
/>
<path d="
  M 446.13 185.25
  L 446.03 210.19
  A 0.80 0.79 -89.6 0 1 445.24 210.98
  L 410.97 210.97
  A 1.00 1.00 0.0 0 0 409.97 211.96
  L 409.85 231.00
  L 400.04 230.98
  L 400.11 221.65
  A 0.66 0.66 0.0 0 1 400.78 221.00
  L 403.97 221.01
  A 0.98 0.97 -89.7 0 0 404.95 220.03
  L 405.02 206.75
  A 0.73 0.73 0.0 0 1 405.75 206.02
  L 419.00 205.95
  A 0.98 0.97 -89.1 0 0 419.97 205.00
  L 420.10 200.70
  A 0.69 0.69 0.0 0 1 420.79 200.03
  L 428.97 199.98
  A 1.01 1.00 1.5 0 0 429.98 199.03
  L 430.16 195.78
  Q 430.20 195.01 430.97 195.01
  L 435.05 195.01
  A 0.90 0.89 -87.2 0 0 435.94 194.20
  L 436.28 190.72
  Q 436.35 190.03 437.03 190.03
  L 439.90 190.01
  Q 440.45 190.01 440.71 189.51
  Q 441.27 188.43 440.97 186.96
  Q 440.66 185.45 442.16 185.08
  Q 443.39 184.78 446.13 185.25
  Z"
/>
<path d="
  M 360.03 216.08
  L 373.90 215.99
  A 0.98 0.98 0.0 0 1 374.89 216.97
  L 374.84 231.02
  L 360.87 230.96
  Q 360.05 230.95 360.05 230.13
  L 360.03 216.08
  Z"
/>
</g>
<g fill="#bb5b4c">
<path d="
  M 365.21 90.04
  L 365.04 98.72
  Q 365.02 100.09 366.38 100.03
  L 368.90 99.91
  A 0.97 0.96 88.3 0 1 369.91 100.87
  L 369.95 114.05
  A 0.99 0.98 -89.2 0 1 368.94 115.04
  L 365.92 114.95
  A 0.88 0.88 0.0 0 0 365.02 115.83
  L 365.01 134.02
  A 1.00 1.00 0.0 0 0 366.02 135.02
  L 368.96 134.99
  A 0.98 0.97 -0.3 0 1 369.95 135.96
  L 369.90 149.05
  A 0.95 0.95 0.0 0 1 368.94 150.00
  L 365.85 149.97
  A 0.81 0.81 0.0 0 0 365.03 150.77
  L 364.99 158.93
  A 1.17 1.17 0.0 0 1 363.85 160.09
  L 360.03 160.18
  L 360.03 90.76
  A 0.75 0.74 0.0 0 1 360.78 90.02
  L 365.21 90.04
  Z"
/>
<path d="
  M 430.44 90.08
  L 429.67 94.41
  Q 429.57 94.98 428.99 94.98
  L 420.99 95.02
  A 1.00 0.99 -89.7 0 0 420.00 96.01
  L 419.99 99.10
  A 0.84 0.84 0.0 0 1 419.15 99.94
  L 405.86 99.95
  A 0.86 0.85 -0.3 0 1 405.00 99.11
  L 404.98 95.74
  A 0.74 0.73 0.0 0 0 404.24 95.01
  L 396.08 94.99
  A 1.14 1.13 -0.8 0 1 394.94 93.89
  L 394.81 90.10
  L 430.44 90.08
  Z"
/>
<path d="
  M 500.94 165.30
  Q 499.00 164.68 496.65 165.17
  Q 496.12 165.28 496.11 165.82
  L 496.01 168.94
  A 0.98 0.98 0.0 0 1 495.06 169.90
  L 486.81 170.17
  Q 486.30 170.18 486.25 170.69
  L 485.94 173.95
  A 1.16 1.15 -87.3 0 1 484.79 175.00
  L 481.85 175.00
  Q 481.20 175.00 481.16 175.65
  L 480.90 179.24
  A 0.76 0.75 -89.1 0 1 480.19 179.94
  L 477.00 180.11
  Q 476.40 180.14 476.34 180.75
  L 475.60 189.30
  A 0.69 0.68 -88.6 0 1 474.94 189.93
  L 471.95 190.02
  Q 471.19 190.04 471.14 190.80
  L 470.92 193.80
  Q 470.84 194.95 469.69 194.96
  L 462.28 195.01
  Q 461.05 195.01 461.02 193.78
  L 460.94 190.82
  Q 460.92 190.10 460.19 190.08
  L 456.86 189.98
  Q 456.11 189.95 456.08 189.20
  L 455.93 185.95
  Q 455.91 185.39 455.36 185.27
  Q 453.02 184.74 450.82 185.07
  L 446.13 185.25
  Q 443.39 184.78 442.16 185.08
  Q 440.66 185.45 440.97 186.96
  Q 441.27 188.43 440.71 189.51
  Q 440.45 190.01 439.90 190.01
  L 437.03 190.03
  Q 436.35 190.03 436.28 190.72
  L 435.94 194.20
  A 0.90 0.89 -87.2 0 1 435.05 195.01
  L 430.97 195.01
  Q 430.20 195.01 430.16 195.78
  L 429.98 199.03
  A 1.01 1.00 1.5 0 1 428.97 199.98
  L 420.79 200.03
  A 0.69 0.69 0.0 0 0 420.10 200.70
  L 419.97 205.00
  A 0.98 0.97 -89.1 0 1 419.00 205.95
  L 405.75 206.02
  A 0.73 0.73 0.0 0 0 405.02 206.75
  L 404.95 220.03
  A 0.98 0.97 -89.7 0 1 403.97 221.01
  L 400.78 221.00
  A 0.66 0.66 0.0 0 0 400.11 221.65
  L 400.04 230.98
  L 389.93 230.97
  L 389.93 221.65
  Q 389.93 221.00 389.27 221.00
  L 386.04 221.00
  A 0.96 0.96 0.0 0 1 385.08 220.04
  L 385.13 206.78
  Q 385.13 206.08 385.84 206.06
  L 389.05 205.98
  A 0.78 0.78 0.0 0 0 389.81 205.20
  L 389.83 185.55
  Q 389.83 185.02 389.30 185.01
  L 385.78 184.99
  A 0.79 0.79 0.0 0 1 385.00 184.15
  Q 385.40 177.45 385.16 170.97
  A 0.86 0.86 0.0 0 1 385.98 170.08
  L 389.27 169.95
  A 0.48 0.48 0.0 0 0 389.73 169.48
  L 390.05 160.58
  Q 390.07 159.99 390.67 159.99
  L 393.47 160.00
  Q 394.93 160.00 394.96 158.53
  L 395.02 155.93
  Q 395.04 155.06 395.90 155.05
  L 403.99 154.95
  Q 404.91 154.94 404.93 154.01
  L 404.99 151.29
  Q 405.02 150.09 406.22 150.07
  L 419.21 149.88
  Q 419.67 149.87 419.72 149.41
  Q 420.44 142.66 420.04 136.22
  A 1.07 1.06 -3.2 0 1 421.05 135.10
  L 424.26 134.93
  A 0.71 0.71 0.0 0 0 424.94 134.23
  L 425.02 125.99
  A 1.00 0.99 -89.7 0 1 426.01 125.00
  L 435.08 124.97
  A 0.86 0.86 0.0 0 1 435.94 125.82
  L 436.08 134.10
  A 0.91 0.91 0.0 0 0 436.98 134.99
  L 440.13 135.02
  A 0.72 0.71 -89.6 0 1 440.84 135.75
  L 440.73 149.23
  Q 440.73 149.94 440.02 149.95
  L 436.74 150.00
  A 0.52 0.52 0.0 0 0 436.23 150.52
  L 436.24 164.28
  A 0.61 0.61 0.0 0 0 436.81 164.89
  L 440.23 165.16
  A 0.62 0.62 0.0 0 1 440.80 165.73
  L 441.08 169.24
  A 0.53 0.52 88.7 0 0 441.58 169.72
  L 446.01 169.89
  L 451.07 169.91
  L 455.07 169.77
  Q 455.68 169.75 455.75 169.14
  L 456.07 165.94
  Q 456.14 165.28 456.81 165.22
  L 460.10 164.91
  Q 460.80 164.85 460.84 164.15
  L 461.06 160.85
  Q 461.11 160.05 461.91 160.03
  L 465.10 159.97
  Q 465.90 159.95 465.92 159.15
  L 466.03 155.87
  A 0.86 0.86 0.0 0 1 466.88 155.03
  L 470.07 154.98
  Q 470.73 154.97 470.86 154.33
  Q 471.15 152.98 470.95 151.43
  A 1.26 1.26 0.0 0 1 472.16 150.02
  L 475.23 149.94
  A 0.69 0.69 0.0 0 0 475.90 149.28
  L 476.04 145.67
  A 0.57 0.56 89.5 0 1 476.57 145.12
  L 479.90 144.93
  Q 480.92 144.87 480.94 143.85
  L 481.01 141.19
  Q 481.04 140.08 479.93 140.05
  L 476.99 139.98
  A 1.01 1.01 0.0 0 1 476.00 138.98
  L 475.98 135.62
  Q 475.98 135.01 475.37 135.01
  L 471.75 134.99
  A 0.74 0.74 0.0 0 1 471.01 134.25
  L 470.99 130.63
  A 0.61 0.61 0.0 0 0 470.38 130.02
  L 467.37 130.00
  Q 466.00 129.99 466.00 128.62
  L 465.99 121.28
  Q 465.99 120.06 467.22 120.04
  L 475.25 119.97
  A 0.73 0.72 -0.4 0 0 475.97 119.25
  L 475.99 116.01
  Q 475.99 115.02 476.99 115.02
  L 485.23 114.99
  Q 485.80 114.99 485.90 114.42
  Q 486.24 112.42 485.77 110.07
  L 489.93 110.02
  A 1.06 1.06 0.0 0 0 490.98 108.96
  L 491.01 106.02
  Q 491.02 104.90 489.91 104.98
  Q 487.98 105.10 486.39 104.91
  Q 485.96 104.86 485.91 104.50
  L 485.98 100.96
  A 0.89 0.88 -89.0 0 0 485.11 100.05
  L 476.96 99.97
  A 1.00 1.00 0.0 0 1 475.97 98.96
  L 475.99 96.01
  Q 476.00 95.02 475.01 95.02
  L 467.19 94.99
  A 1.16 1.16 0.0 0 1 466.04 93.84
  L 466.00 90.07
  L 500.45 89.99
  A 0.60 0.60 0.0 0 1 501.05 90.59
  L 500.94 165.30
  Z"
/>
<path d="
  M 500.94 194.85
  L 501.02 230.14
  A 0.90 0.89 -0.3 0 1 500.12 231.04
  L 465.98 231.00
  L 466.04 226.75
  A 0.71 0.71 0.0 0 1 466.75 226.05
  L 470.31 226.03
  A 0.62 0.62 0.0 0 0 470.92 225.44
  L 471.06 221.89
  A 0.87 0.87 0.0 0 1 471.92 221.06
  L 480.09 220.94
  A 0.91 0.91 0.0 0 0 480.98 220.04
  L 481.01 216.71
  A 0.65 0.65 0.0 0 1 481.64 216.06
  L 485.19 215.97
  Q 485.92 215.95 485.94 215.22
  L 486.03 211.86
  A 0.80 0.80 0.0 0 1 486.80 211.08
  L 490.08 210.96
  A 0.81 0.81 0.0 0 0 490.86 210.18
  L 491.20 200.67
  A 0.65 0.65 0.0 0 1 491.84 200.04
  L 494.88 199.99
  Q 495.98 199.97 495.99 198.87
  L 496.01 195.78
  Q 496.02 195.07 496.73 195.04
  L 500.94 194.85
  Z"
/>
</g>
<g fill="#eabf77">
<path d="
  M 446.09 90.04
  L 450.82 90.05
  L 451.07 104.18
  A 0.79 0.79 0.0 0 0 451.86 104.96
  Q 468.01 104.93 484.50 105.01
  Q 484.92 105.01 485.91 104.50
  Q 485.96 104.86 486.39 104.91
  Q 487.98 105.10 489.91 104.98
  Q 491.02 104.90 491.01 106.02
  L 490.98 108.96
  A 1.06 1.06 0.0 0 1 489.93 110.02
  L 485.77 110.07
  L 451.62 110.02
  A 0.58 0.58 0.0 0 0 451.03 110.60
  L 451.07 169.91
  L 446.01 169.89
  L 445.96 110.72
  A 0.72 0.71 89.2 0 0 445.24 110.01
  L 416.01 110.06
  A 0.97 0.96 88.6 0 0 415.05 111.08
  Q 415.87 128.10 414.89 144.43
  Q 414.86 144.99 414.30 145.01
  Q 397.43 145.46 380.64 144.99
  Q 380.12 144.98 380.12 145.50
  L 380.01 179.44
  Q 380.01 180.00 379.45 180.00
  L 359.98 180.07
  L 360.05 174.97
  L 374.01 174.99
  A 0.94 0.94 0.0 0 0 374.95 174.05
  L 374.99 141.11
  A 1.15 1.15 0.0 0 1 376.14 139.96
  L 408.98 140.01
  A 0.99 0.99 0.0 0 0 409.97 139.02
  L 409.98 105.74
  A 0.79 0.78 -0.4 0 1 410.76 104.96
  L 445.31 104.85
  A 0.74 0.73 -89.6 0 0 446.04 104.12
  L 446.09 90.04
  Z"
/>
<path d="
  M 450.82 185.07
  Q 451.64 200.19 450.93 215.41
  Q 450.90 216.00 450.30 216.00
  L 415.96 216.04
  A 0.83 0.83 0.0 0 0 415.13 216.87
  L 415.19 231.00
  L 409.85 231.00
  L 409.97 211.96
  A 1.00 1.00 0.0 0 1 410.97 210.97
  L 445.24 210.98
  A 0.80 0.79 -89.6 0 0 446.03 210.19
  L 446.13 185.25
  L 450.82 185.07
  Z"
/>
<path d="
  M 360.03 210.99
  L 379.13 210.99
  A 0.91 0.91 0.0 0 1 380.04 211.89
  L 380.15 230.97
  L 374.84 231.02
  L 374.89 216.97
  A 0.98 0.98 0.0 0 0 373.90 215.99
  L 360.03 216.08
  L 360.03 210.99
  Z"
/>
</g>
</svg>
