<?xml version="1.0" encoding="UTF-8" standalone="no"?>
<!DOCTYPE svg PUBLIC "-//W3C//DTD SVG 1.1//EN" "http://www.w3.org/Graphics/SVG/1.1/DTD/svg11.dtd">
<svg xmlns="http://www.w3.org/2000/svg" version="1.1" viewBox="0.00 0.00 1024.00 1024.00">
<clipPath id="clipping-path-0">
<path d="
  M 0.00 0.00
  L 1024.00 0.00
  L 1024.00 1024.00
  L 0.00 1024.00
  L 0.00 0.00
  Z"/>
</clipPath>
<g stroke-width="2.00" fill="none" stroke-linecap="butt" clip-path="url(#clipping-path-0)">
<path stroke="#7d6f53" vector-effect="non-scaling-stroke" d="
  M 846.05 550.31
  Q 845.95 550.20 845.86 550.12
  Q 845.70 549.99 845.50 549.99
  L 526.59 550.03
  A 0.40 0.40 0.0 0 0 526.19 550.43
  L 526.00 628.76
  A 1.26 1.25 -0.0 0 1 524.74 630.01
  L 366.75 630.00
  A 0.77 0.77 0.0 0 1 365.98 629.23
  L 366.00 309.18"
/>
<path stroke="#7d6f53" vector-effect="non-scaling-stroke" d="
  M 434.43 308.59
  Q 435.59 308.99 436.75 308.98
  Q 481.13 308.85 525.35 309.07
  A 0.61 0.61 0.0 0 0 525.96 308.46
  L 525.99 229.57"
/>
<path stroke="#7d6f53" vector-effect="non-scaling-stroke" d="
  M 686.95 309.33
  A 0.30 0.30 0.0 0 0 686.65 309.03
  L 526.33 309.03
  A 0.30 0.30 0.0 0 0 526.03 309.33
  L 526.03 469.69
  A 0.30 0.30 0.0 0 0 526.33 469.99
  L 686.65 469.99
  A 0.30 0.30 0.0 0 0 686.95 469.69
  L 686.95 309.33"
/>
<path stroke="#7d6f53" vector-effect="non-scaling-stroke" d="
  M 536.06 388.97
  L 536.04 403.82"
/>
<path stroke="#957553" vector-effect="non-scaling-stroke" d="
  M 536.04 403.82
  L 536.10 406.01"
/>
<path stroke="#7d6f53" vector-effect="non-scaling-stroke" d="
  M 536.10 406.01
  L 536.06 440.19"
/>
<path stroke="#957553" vector-effect="non-scaling-stroke" d="
  M 536.06 440.19
  L 536.03 444.97"
/>
<path stroke="#7d6f53" vector-effect="non-scaling-stroke" d="
  M 536.03 444.97
  L 536.06 459.35
  A 0.62 0.61 0.5 0 0 536.67 459.96
  L 550.85 460.00"
/>
<path stroke="#957553" vector-effect="non-scaling-stroke" d="
  M 550.85 460.00
  L 556.17 459.98"
/>
<path stroke="#7d6f53" vector-effect="non-scaling-stroke" d="
  M 556.17 459.98
  L 565.95 459.98"
/>
<path stroke="#7e433d" vector-effect="non-scaling-stroke" d="
  M 565.95 459.98
  L 576.08 459.96"
/>
<path stroke="#7d6f53" vector-effect="non-scaling-stroke" d="
  M 576.08 459.96
  L 585.87 459.99"
/>
<path stroke="#957553" vector-effect="non-scaling-stroke" d="
  M 585.87 459.99
  L 591.04 459.99"
/>
<path stroke="#7d6f53" vector-effect="non-scaling-stroke" d="
  M 591.04 459.99
  L 642.20 459.99"
/>
<path stroke="#7e433d" vector-effect="non-scaling-stroke" d="
  M 642.20 459.99
  L 676.60 459.98
  A 0.38 0.37 -90.0 0 0 676.97 459.60
  L 677.02 424.00"
/>
<path stroke="#7d6f53" vector-effect="non-scaling-stroke" d="
  M 677.02 424.00
  L 677.06 394.20"
/>
<path stroke="#7e433d" vector-effect="non-scaling-stroke" d="
  M 677.06 394.20
  L 677.08 319.83
  Q 677.08 318.99 676.24 319.00
  L 642.01 319.06"
/>
<path stroke="#7d6f53" vector-effect="non-scaling-stroke" d="
  M 642.01 319.06
  L 626.78 319.05"
/>
<path stroke="#957553" vector-effect="non-scaling-stroke" d="
  M 626.78 319.05
  L 621.98 319.07"
/>
<path stroke="#7d6f53" vector-effect="non-scaling-stroke" d="
  M 621.98 319.07
  L 607.28 319.11"
/>
<path stroke="#7e433d" vector-effect="non-scaling-stroke" d="
  M 607.28 319.11
  L 570.97 319.19"
/>
<path stroke="#7d6f53" vector-effect="non-scaling-stroke" d="
  M 570.97 319.19
  L 541.31 318.93"
/>
<path stroke="#7e433d" vector-effect="non-scaling-stroke" d="
  M 541.31 318.93
  L 536.77 318.95
  Q 535.96 318.95 535.96 319.76
  L 536.06 388.97"
/>
<path stroke="#bb8862" vector-effect="non-scaling-stroke" d="
  M 541.31 318.93
  L 541.20 328.32
  A 0.70 0.70 0.0 0 0 541.92 329.03
  L 544.90 328.98
  Q 545.84 328.96 545.85 329.90
  L 545.95 343.04
  Q 545.96 344.04 544.96 344.01
  L 541.80 343.93
  A 0.77 0.76 -89.3 0 0 541.02 344.70
  L 541.01 362.93
  A 1.12 1.11 -1.0 0 0 542.18 364.05
  L 545.15 363.92
  A 0.74 0.74 0.0 0 1 545.93 364.66
  L 545.91 378.08
  A 0.96 0.95 -88.6 0 1 544.92 379.03
  L 542.02 378.93
  A 0.93 0.92 -88.5 0 0 541.06 379.85
  L 540.97 388.29
  A 0.73 0.72 -89.2 0 1 540.24 389.01
  L 536.06 388.97"
/>
<path stroke="#bb8862" vector-effect="non-scaling-stroke" d="
  M 570.97 319.19
  L 571.07 322.92
  A 0.93 0.92 0.0 0 0 571.97 323.81
  L 580.31 324.11
  Q 580.98 324.14 580.99 324.81
  L 581.03 328.01
  A 0.98 0.98 0.0 0 0 582.01 328.97
  L 595.30 328.90
  A 0.70 0.69 90.0 0 0 595.99 328.20
  L 596.01 324.80
  A 0.70 0.70 0.0 0 1 596.70 324.10
  L 605.24 323.93
  A 0.67 0.67 0.0 0 0 605.90 323.21
  Q 605.60 319.18 607.28 319.11"
/>
<path stroke="#d2ba78" vector-effect="non-scaling-stroke" d="
  M 621.98 319.07
  L 621.96 333.45
  A 0.41 0.41 0.0 0 1 621.55 333.86
  L 587.03 333.92
  A 1.05 1.04 90.0 0 0 585.99 334.97
  L 585.92 368.02
  A 0.94 0.93 -0.0 0 1 584.98 368.95
  L 552.02 368.95
  A 1.03 1.02 90.0 0 0 551.00 369.98
  L 550.98 403.08
  Q 550.98 403.94 550.11 403.93
  L 536.04 403.82"
/>
<path stroke="#d2ba78" vector-effect="non-scaling-stroke" d="
  M 661.97 339.03
  L 627.39 338.94
  A 0.37 0.36 90.0 0 0 627.03 339.31
  L 626.98 398.93"
/>
<path stroke="#d2ba78" vector-effect="non-scaling-stroke" d="
  M 622.05 398.94
  L 621.88 340.10
  Q 621.88 338.99 620.77 339.00
  L 591.75 339.17
  A 0.72 0.72 0.0 0 0 591.03 339.93
  C 591.45 348.30 591.93 357.02 591.20 365.36
  Q 590.86 369.24 591.18 373.17
  A 0.96 0.96 0.0 0 1 590.22 374.21
  L 556.72 374.18
  A 0.60 0.60 0.0 0 0 556.12 374.78
  L 556.01 408.26
  A 0.77 0.77 0.0 0 1 555.24 409.02
  L 537.01 409.00
  Q 536.46 409.00 536.30 408.48
  Q 535.95 407.37 536.10 406.01"
/>
<path stroke="#bb8862" vector-effect="non-scaling-stroke" d="
  M 677.06 394.20
  L 672.78 394.19
  Q 672.22 394.19 672.18 394.75
  L 671.95 398.22
  A 0.69 0.69 0.0 0 1 671.28 398.87
  L 662.80 399.15
  A 0.60 0.60 0.0 0 0 662.23 399.69
  L 661.92 403.26
  A 0.73 0.72 -88.7 0 1 661.22 403.93
  L 657.84 404.02
  Q 657.23 404.04 657.17 404.65
  L 656.82 408.06
  Q 656.74 408.87 655.93 408.94
  L 653.18 409.17
  A 0.96 0.95 89.7 0 0 652.31 410.06
  L 651.65 418.57
  A 0.48 0.47 1.3 0 1 651.18 419.01
  L 647.73 419.10
  A 0.69 0.69 0.0 0 0 647.05 419.77
  L 646.96 422.81
  Q 646.93 423.85 645.90 423.86
  L 638.04 424.00
  Q 637.07 424.02 637.04 423.04
  L 636.91 419.82
  Q 636.88 419.02 636.08 419.01
  L 633.04 418.99
  A 1.00 1.00 0.0 0 1 632.05 418.04
  L 631.87 414.98
  Q 631.84 414.31 631.16 414.29
  L 625.53 414.13"
/>
<path stroke="#d38d62" vector-effect="non-scaling-stroke" d="
  M 625.53 414.13
  L 622.13 414.12"
/>
<path stroke="#bb8862" vector-effect="non-scaling-stroke" d="
  M 622.13 414.12
  L 617.84 414.20
  Q 617.14 414.22 617.10 414.91
  L 616.92 418.16
  A 0.90 0.90 0.0 0 1 616.02 419.01
  L 613.03 419.02
  A 0.77 0.77 0.0 0 0 612.26 419.72
  L 611.97 422.94
  A 1.17 1.17 0.0 0 1 610.80 424.01
  L 606.77 423.99
  Q 606.27 423.99 606.23 424.48
  L 605.94 428.03
  A 1.01 1.00 1.6 0 1 604.96 428.95
  L 596.77 429.13
  Q 596.11 429.14 596.10 429.80
  L 596.01 434.00
  A 1.01 1.00 0.6 0 1 595.00 434.98
  L 581.77 435.01
  A 0.72 0.72 0.0 0 0 581.05 435.73
  L 580.95 449.03
  A 0.98 0.98 0.0 0 1 579.97 450.00
  L 576.80 449.99
  Q 576.27 449.99 576.26 450.53
  L 576.08 459.96"
/>
<path stroke="#bb8862" vector-effect="non-scaling-stroke" d="
  M 565.95 459.98
  L 565.91 450.68
  Q 565.91 450.02 565.25 450.01
  L 562.08 450.00
  A 0.93 0.92 -0.0 0 1 561.15 449.08
  L 561.16 435.88
  Q 561.16 435.18 561.86 435.14
  L 565.07 434.97
  A 0.79 0.78 88.5 0 0 565.81 434.18
  L 565.82 414.55
  A 0.53 0.52 0.6 0 0 565.30 414.03
  L 561.81 413.99
  A 0.67 0.67 0.0 0 1 561.15 413.31
  L 561.27 399.88
  Q 561.28 399.29 561.87 399.23
  L 565.05 398.95
  A 0.79 0.79 0.0 0 0 565.76 398.19
  L 566.02 389.89
  Q 566.05 389.07 566.86 389.05
  L 570.08 388.98
  A 0.84 0.84 0.0 0 0 570.90 388.17
  L 571.03 384.98
  A 0.93 0.93 0.0 0 1 571.93 384.08
  L 580.28 383.83
  Q 580.88 383.82 580.90 383.22
  L 581.03 380.15
  A 1.10 1.09 -89.2 0 1 582.10 379.10
  L 595.31 378.84
  A 0.46 0.46 0.0 0 0 595.77 378.42
  Q 596.41 371.68 596.04 365.06
  A 0.99 0.98 87.8 0 1 597.00 364.01
  L 600.03 363.95
  A 0.94 0.94 0.0 0 0 600.96 363.01
  L 601.01 355.10
  A 1.13 1.13 0.0 0 1 602.14 353.97
  L 610.98 353.97
  A 0.95 0.95 0.0 0 1 611.93 354.90
  L 612.10 363.29
  A 0.70 0.69 89.1 0 0 612.79 363.97
  L 616.16 364.01
  A 0.66 0.65 89.6 0 1 616.81 364.66
  L 616.81 378.34
  A 0.66 0.65 90.0 0 1 616.16 379.00
  L 612.96 379.00
  Q 612.17 379.00 612.17 379.79
  L 612.25 393.23
  A 0.64 0.64 0.0 0 0 612.85 393.87
  L 616.18 394.03
  Q 616.79 394.06 616.83 394.67
  L 617.05 397.91
  A 1.00 0.99 88.7 0 0 618.02 398.84
  L 622.05 398.94"
/>
<path stroke="#d38d62" vector-effect="non-scaling-stroke" d="
  M 622.05 398.94
  L 626.98 398.93"
/>
<path stroke="#bb8862" vector-effect="non-scaling-stroke" d="
  M 626.98 398.93
  L 631.10 398.71
  Q 631.71 398.68 631.76 398.07
  L 632.03 395.20
  A 1.15 1.14 89.7 0 1 633.04 394.17
  L 636.14 393.85
  A 0.77 0.75 -1.0 0 0 636.82 393.16
  L 637.09 389.92
  A 0.82 0.81 -0.5 0 1 637.82 389.19
  L 641.15 388.87
  A 0.73 0.73 0.0 0 0 641.81 388.19
  L 642.04 384.96
  Q 642.10 384.13 642.92 384.09
  L 646.21 383.90
  A 0.73 0.73 0.0 0 0 646.91 383.20
  L 647.06 379.91
  Q 647.09 379.17 647.83 379.12
  L 651.26 378.88
  A 0.67 0.66 89.5 0 0 651.87 378.25
  L 652.03 374.93
  Q 652.06 374.40 652.57 374.25
  Q 654.08 373.81 655.72 373.93
  Q 656.78 374.01 656.85 372.95
  L 657.04 370.20
  A 1.10 1.10 0.0 0 0 655.95 369.02
  L 653.01 368.99
  A 1.00 1.00 0.0 0 1 652.01 368.01
  L 651.97 364.62
  A 0.62 0.61 89.5 0 0 651.36 364.01
  L 647.75 364.00
  Q 647.01 364.00 647.01 363.25
  L 646.99 359.74
  A 0.75 0.74 -0.0 0 0 646.24 359.00
  L 643.13 359.00
  Q 642.02 359.00 642.01 357.88
  L 641.96 350.17
  Q 641.95 349.04 643.08 349.03
  L 651.28 348.96
  A 0.73 0.72 89.6 0 0 652.00 348.22
  L 651.95 344.96
  A 0.86 0.85 -1.3 0 1 652.79 344.09
  L 661.25 343.95
  A 0.70 0.69 -0.4 0 0 661.94 343.26
  L 661.97 339.03"
/>
<path stroke="#d38d62" vector-effect="non-scaling-stroke" d="
  M 661.97 339.03
  L 666.23 338.98
  Q 666.99 338.97 666.99 338.21
  L 667.00 334.77
  Q 667.01 334.00 666.23 333.99
  L 661.95 333.95"
/>
<path stroke="#d2ba78" vector-effect="non-scaling-stroke" d="
  M 556.17 459.98
  L 556.02 441.20
  A 1.21 1.21 0.0 0 0 554.80 440.00
  L 536.06 440.19"
/>
<path stroke="#bb8862" vector-effect="non-scaling-stroke" d="
  M 642.01 319.06
  Q 641.69 321.43 642.32 323.30
  Q 642.49 323.80 643.01 323.82
  L 651.24 324.19
  Q 652.00 324.23 652.00 324.99
  L 651.99 327.98
  A 0.99 0.99 0.0 0 0 652.97 328.97
  L 661.27 329.02
  A 0.71 0.70 0.8 0 1 661.97 329.73
  L 661.95 333.95"
/>
<path stroke="#d2ba78" vector-effect="non-scaling-stroke" d="
  M 661.95 333.95
  L 628.03 333.96
  Q 627.02 333.96 627.01 332.95
  L 626.78 319.05"
/>
<path stroke="#bb8862" vector-effect="non-scaling-stroke" d="
  M 677.02 424.00
  L 672.74 424.02
  A 0.73 0.73 0.0 0 0 672.01 424.75
  L 672.00 428.24
  A 0.75 0.75 0.0 0 1 671.26 428.98
  L 668.09 429.03
  A 0.91 0.91 0.0 0 0 667.19 429.91
  L 666.85 438.92
  Q 666.81 439.89 665.84 439.94
  L 662.80 440.08
  A 0.83 0.83 0.0 0 0 662.01 440.91
  L 661.97 443.98
  A 1.00 0.99 89.1 0 1 661.02 444.97
  L 657.81 445.09
  A 0.81 0.80 89.6 0 0 657.04 445.88
  L 656.96 449.25
  A 0.70 0.70 0.0 0 1 656.26 449.94
  L 647.86 450.05
  A 0.85 0.85 0.0 0 0 647.02 450.89
  L 646.97 454.26
  A 0.74 0.74 0.0 0 1 646.24 454.99
  L 642.91 455.01
  A 0.78 0.78 0.0 0 0 642.14 455.81
  L 642.20 459.99"
/>
<path stroke="#d2ba78" vector-effect="non-scaling-stroke" d="
  M 591.04 459.99
  L 591.12 445.84
  A 0.84 0.84 0.0 0 1 591.96 445.00
  L 626.28 445.01
  Q 626.88 445.01 626.91 444.41
  Q 627.58 429.53 626.92 414.84
  Q 626.90 414.32 626.40 414.16
  Q 626.04 414.05 625.53 414.13"
/>
<path stroke="#d2ba78" vector-effect="non-scaling-stroke" d="
  M 622.13 414.12
  L 622.06 438.94
  A 0.99 0.99 0.0 0 1 621.08 439.93
  Q 614.31 440.05 607.92 439.79
  C 600.81 439.51 593.98 439.88 586.97 440.01
  A 1.02 1.02 0.0 0 0 585.96 441.03
  L 585.87 459.99"
/>
<path stroke="#d2ba78" vector-effect="non-scaling-stroke" d="
  M 550.85 460.00
  L 550.87 445.65
  A 0.63 0.63 0.0 0 0 550.24 445.02
  L 536.03 444.97"
/>
</g>
<g fill="#402a2e">
<path d="
  M 525.99 229.57
  L 525.96 308.46
  A 0.61 0.61 0.0 0 1 525.35 309.07
  Q 481.13 308.85 436.75 308.98
  Q 435.59 308.99 434.43 308.59
  L 525.99 229.57
  Z"
/>
<path d="
  M 686.95 469.69
  A 0.30 0.30 0.0 0 1 686.65 469.99
  L 526.33 469.99
  A 0.30 0.30 0.0 0 1 526.03 469.69
  L 526.03 309.33
  A 0.30 0.30 0.0 0 1 526.33 309.03
  L 686.65 309.03
  A 0.30 0.30 0.0 0 1 686.95 309.33
  L 686.95 469.69
  Z
  M 536.06 388.97
  L 536.04 403.82
  L 536.10 406.01
  L 536.06 440.19
  L 536.03 444.97
  L 536.06 459.35
  A 0.62 0.61 0.5 0 0 536.67 459.96
  L 550.85 460.00
  L 556.17 459.98
  L 565.95 459.98
  L 576.08 459.96
  L 585.87 459.99
  L 591.04 459.99
  L 642.20 459.99
  L 676.60 459.98
  A 0.38 0.37 -90.0 0 0 676.97 459.60
  L 677.02 424.00
  L 677.06 394.20
  L 677.08 319.83
  Q 677.08 318.99 676.24 319.00
  L 642.01 319.06
  L 626.78 319.05
  L 621.98 319.07
  L 607.28 319.11
  L 570.97 319.19
  L 541.31 318.93
  L 536.77 318.95
  Q 535.96 318.95 535.96 319.76
  L 536.06 388.97
  Z"
/>
<path d="
  M 366.00 309.18
  L 365.98 629.23
  A 0.77 0.77 0.0 0 0 366.75 630.00
  L 524.74 630.01
  A 1.26 1.25 0.0 0 0 526.00 628.76
  L 526.19 550.43
  A 0.40 0.40 0.0 0 1 526.59 550.03
  L 845.50 549.99
  Q 845.70 549.99 845.86 550.12
  Q 845.95 550.20 846.05 550.31
  L 658.10 713.24
  A 3.13 3.12 -65.3 0 1 656.06 714.00
  Q 544.01 713.99 431.97 714.01
  C 429.81 714.01 428.17 714.81 426.47 716.29
  Q 384.28 753.11 342.61 789.13
  C 340.94 790.57 338.36 794.00 336.08 794.00
  Q 255.99 794.00 176.28 794.00
  A 0.28 0.28 0.0 0 1 176.00 793.72
  L 176.00 476.00
  A 3.99 3.98 69.4 0 1 177.36 473.00
  L 366.00 309.18
  Z"
/>
</g>
<g fill="#bab478">
<path d="
  M 846.05 550.31
  Q 845.95 550.20 845.86 550.12
  Q 845.70 549.99 845.50 549.99
  L 526.59 550.03
  A 0.40 0.40 0.0 0 0 526.19 550.43
  L 526.00 628.76
  A 1.26 1.25 -0.0 0 1 524.74 630.01
  L 366.75 630.00
  A 0.77 0.77 0.0 0 1 365.98 629.23
  L 366.00 309.18
  Q 398.77 308.88 431.75 308.99
  Q 432.43 308.99 434.43 308.59
  Q 435.59 308.99 436.75 308.98
  Q 481.13 308.85 525.35 309.07
  A 0.61 0.61 0.0 0 0 525.96 308.46
  L 525.99 229.57
  Q 528.61 229.00 535.25 229.00
  Q 690.25 229.00 846.09 229.00
  A 0.91 0.91 0.0 0 1 847.00 229.91
  Q 846.99 388.73 847.00 548.25
  C 847.00 549.03 846.55 549.75 846.05 550.31
  Z
  M 686.95 309.33
  A 0.30 0.30 0.0 0 0 686.65 309.03
  L 526.33 309.03
  A 0.30 0.30 0.0 0 0 526.03 309.33
  L 526.03 469.69
  A 0.30 0.30 0.0 0 0 526.33 469.99
  L 686.65 469.99
  A 0.30 0.30 0.0 0 0 686.95 469.69
  L 686.95 309.33
  Z"
/>
<path d="
  M 541.31 318.93
  L 570.97 319.19
  L 571.07 322.92
  A 0.93 0.92 0.0 0 0 571.97 323.81
  L 580.31 324.11
  Q 580.98 324.14 580.99 324.81
  L 581.03 328.01
  A 0.98 0.98 0.0 0 0 582.01 328.97
  L 595.30 328.90
  A 0.70 0.69 90.0 0 0 595.99 328.20
  L 596.01 324.80
  A 0.70 0.70 0.0 0 1 596.70 324.10
  L 605.24 323.93
  A 0.67 0.67 0.0 0 0 605.90 323.21
  Q 605.60 319.18 607.28 319.11
  L 621.98 319.07
  L 621.96 333.45
  A 0.41 0.41 0.0 0 1 621.55 333.86
  L 587.03 333.92
  A 1.05 1.04 90.0 0 0 585.99 334.97
  L 585.92 368.02
  A 0.94 0.93 -0.0 0 1 584.98 368.95
  L 552.02 368.95
  A 1.03 1.02 90.0 0 0 551.00 369.98
  L 550.98 403.08
  Q 550.98 403.94 550.11 403.93
  L 536.04 403.82
  L 536.06 388.97
  L 540.24 389.01
  A 0.73 0.72 -89.2 0 0 540.97 388.29
  L 541.06 379.85
  A 0.93 0.92 -88.5 0 1 542.02 378.93
  L 544.92 379.03
  A 0.96 0.95 -88.6 0 0 545.91 378.08
  L 545.93 364.66
  A 0.74 0.74 0.0 0 0 545.15 363.92
  L 542.18 364.05
  A 1.12 1.11 -1.0 0 1 541.01 362.93
  L 541.02 344.70
  A 0.77 0.76 -89.3 0 1 541.80 343.93
  L 544.96 344.01
  Q 545.96 344.04 545.95 343.04
  L 545.85 329.90
  Q 545.84 328.96 544.90 328.98
  L 541.92 329.03
  A 0.70 0.70 0.0 0 1 541.20 328.32
  L 541.31 318.93
  Z"
/>
<path d="
  M 642.01 319.06
  Q 641.69 321.43 642.32 323.30
  Q 642.49 323.80 643.01 323.82
  L 651.24 324.19
  Q 652.00 324.23 652.00 324.99
  L 651.99 327.98
  A 0.99 0.99 0.0 0 0 652.97 328.97
  L 661.27 329.02
  A 0.71 0.70 0.8 0 1 661.97 329.73
  L 661.95 333.95
  L 628.03 333.96
  Q 627.02 333.96 627.01 332.95
  L 626.78 319.05
  L 642.01 319.06
  Z"
/>
<path d="
  M 661.97 339.03
  L 661.94 343.26
  A 0.70 0.69 -0.4 0 1 661.25 343.95
  L 652.79 344.09
  A 0.86 0.85 -1.3 0 0 651.95 344.96
  L 652.00 348.22
  A 0.73 0.72 89.6 0 1 651.28 348.96
  L 643.08 349.03
  Q 641.95 349.04 641.96 350.17
  L 642.01 357.88
  Q 642.02 359.00 643.13 359.00
  L 646.24 359.00
  A 0.75 0.74 -0.0 0 1 646.99 359.74
  L 647.01 363.25
  Q 647.01 364.00 647.75 364.00
  L 651.36 364.01
  A 0.62 0.61 89.5 0 1 651.97 364.62
  L 652.01 368.01
  A 1.00 1.00 0.0 0 0 653.01 368.99
  L 655.95 369.02
  A 1.10 1.10 0.0 0 1 657.04 370.20
  L 656.85 372.95
  Q 656.78 374.01 655.72 373.93
  Q 654.08 373.81 652.57 374.25
  Q 652.06 374.40 652.03 374.93
  L 651.87 378.25
  A 0.67 0.66 89.5 0 1 651.26 378.88
  L 647.83 379.12
  Q 647.09 379.17 647.06 379.91
  L 646.91 383.20
  A 0.73 0.73 0.0 0 1 646.21 383.90
  L 642.92 384.09
  Q 642.10 384.13 642.04 384.96
  L 641.81 388.19
  A 0.73 0.73 0.0 0 1 641.15 388.87
  L 637.82 389.19
  A 0.82 0.81 -0.5 0 0 637.09 389.92
  L 636.82 393.16
  A 0.77 0.75 -1.0 0 1 636.14 393.85
  L 633.04 394.17
  A 1.15 1.14 89.7 0 0 632.03 395.20
  L 631.76 398.07
  Q 631.71 398.68 631.10 398.71
  L 626.98 398.93
  L 627.03 339.31
  A 0.37 0.36 90.0 0 1 627.39 338.94
  L 661.97 339.03
  Z"
/>
<path d="
  M 622.05 398.94
  L 618.02 398.84
  A 1.00 0.99 88.7 0 1 617.05 397.91
  L 616.83 394.67
  Q 616.79 394.06 616.18 394.03
  L 612.85 393.87
  A 0.64 0.64 0.0 0 1 612.25 393.23
  L 612.17 379.79
  Q 612.17 379.00 612.96 379.00
  L 616.16 379.00
  A 0.66 0.65 90.0 0 0 616.81 378.34
  L 616.81 364.66
  A 0.66 0.65 89.6 0 0 616.16 364.01
  L 612.79 363.97
  A 0.70 0.69 89.1 0 1 612.10 363.29
  L 611.93 354.90
  A 0.95 0.95 0.0 0 0 610.98 353.97
  L 602.14 353.97
  A 1.13 1.13 0.0 0 0 601.01 355.10
  L 600.96 363.01
  A 0.94 0.94 0.0 0 1 600.03 363.95
  L 597.00 364.01
  A 0.99 0.98 87.8 0 0 596.04 365.06
  Q 596.41 371.68 595.77 378.42
  A 0.46 0.46 0.0 0 1 595.31 378.84
  L 582.10 379.10
  A 1.10 1.09 -89.2 0 0 581.03 380.15
  L 580.90 383.22
  Q 580.88 383.82 580.28 383.83
  L 571.93 384.08
  A 0.93 0.93 0.0 0 0 571.03 384.98
  L 570.90 388.17
  A 0.84 0.84 0.0 0 1 570.08 388.98
  L 566.86 389.05
  Q 566.05 389.07 566.02 389.89
  L 565.76 398.19
  A 0.79 0.79 0.0 0 1 565.05 398.95
  L 561.87 399.23
  Q 561.28 399.29 561.27 399.88
  L 561.15 413.31
  A 0.67 0.67 0.0 0 0 561.81 413.99
  L 565.30 414.03
  A 0.53 0.52 0.6 0 1 565.82 414.55
  L 565.81 434.18
  A 0.79 0.78 88.5 0 1 565.07 434.97
  L 561.86 435.14
  Q 561.16 435.18 561.16 435.88
  L 561.15 449.08
  A 0.93 0.92 -0.0 0 0 562.08 450.00
  L 565.25 450.01
  Q 565.91 450.02 565.91 450.68
  L 565.95 459.98
  L 556.17 459.98
  L 556.02 441.20
  A 1.21 1.21 0.0 0 0 554.80 440.00
  L 536.06 440.19
  L 536.10 406.01
  Q 535.95 407.37 536.30 408.48
  Q 536.46 409.00 537.01 409.00
  L 555.24 409.02
  A 0.77 0.77 0.0 0 0 556.01 408.26
  L 556.12 374.78
  A 0.60 0.60 0.0 0 1 556.72 374.18
  L 590.22 374.21
  A 0.96 0.96 0.0 0 0 591.18 373.17
  Q 590.86 369.24 591.20 365.36
  C 591.93 357.02 591.45 348.30 591.03 339.93
  A 0.72 0.72 0.0 0 1 591.75 339.17
  L 620.77 339.00
  Q 621.88 338.99 621.88 340.10
  L 622.05 398.94
  Z"
/>
<path d="
  M 677.06 394.20
  L 677.02 424.00
  L 672.74 424.02
  A 0.73 0.73 0.0 0 0 672.01 424.75
  L 672.00 428.24
  A 0.75 0.75 0.0 0 1 671.26 428.98
  L 668.09 429.03
  A 0.91 0.91 0.0 0 0 667.19 429.91
  L 666.85 438.92
  Q 666.81 439.89 665.84 439.94
  L 662.80 440.08
  A 0.83 0.83 0.0 0 0 662.01 440.91
  L 661.97 443.98
  A 1.00 0.99 89.1 0 1 661.02 444.97
  L 657.81 445.09
  A 0.81 0.80 89.6 0 0 657.04 445.88
  L 656.96 449.25
  A 0.70 0.70 0.0 0 1 656.26 449.94
  L 647.86 450.05
  A 0.85 0.85 0.0 0 0 647.02 450.89
  L 646.97 454.26
  A 0.74 0.74 0.0 0 1 646.24 454.99
  L 642.91 455.01
  A 0.78 0.78 0.0 0 0 642.14 455.81
  L 642.20 459.99
  L 591.04 459.99
  L 591.12 445.84
  A 0.84 0.84 0.0 0 1 591.96 445.00
  L 626.28 445.01
  Q 626.88 445.01 626.91 444.41
  Q 627.58 429.53 626.92 414.84
  Q 626.90 414.32 626.40 414.16
  Q 626.04 414.05 625.53 414.13
  L 631.16 414.29
  Q 631.84 414.31 631.87 414.98
  L 632.05 418.04
  A 1.00 1.00 0.0 0 0 633.04 418.99
  L 636.08 419.01
  Q 636.88 419.02 636.91 419.82
  L 637.04 423.04
  Q 637.07 424.02 638.04 424.00
  L 645.90 423.86
  Q 646.93 423.85 646.96 422.81
  L 647.05 419.77
  A 0.69 0.69 0.0 0 1 647.73 419.10
  L 651.18 419.01
  A 0.48 0.47 1.3 0 0 651.65 418.57
  L 652.31 410.06
  A 0.96 0.95 89.7 0 1 653.18 409.17
  L 655.93 408.94
  Q 656.74 408.87 656.82 408.06
  L 657.17 404.65
  Q 657.23 404.04 657.84 404.02
  L 661.22 403.93
  A 0.73 0.72 -88.7 0 0 661.92 403.26
  L 662.23 399.69
  A 0.60 0.60 0.0 0 1 662.80 399.15
  L 671.28 398.87
  A 0.69 0.69 0.0 0 0 671.95 398.22
  L 672.18 394.75
  Q 672.22 394.19 672.78 394.19
  L 677.06 394.20
  Z"
/>
<path d="
  M 622.13 414.12
  L 622.06 438.94
  A 0.99 0.99 0.0 0 1 621.08 439.93
  Q 614.31 440.05 607.92 439.79
  C 600.81 439.51 593.98 439.88 586.97 440.01
  A 1.02 1.02 0.0 0 0 585.96 441.03
  L 585.87 459.99
  L 576.08 459.96
  L 576.26 450.53
  Q 576.27 449.99 576.80 449.99
  L 579.97 450.00
  A 0.98 0.98 0.0 0 0 580.95 449.03
  L 581.05 435.73
  A 0.72 0.72 0.0 0 1 581.77 435.01
  L 595.00 434.98
  A 1.01 1.00 0.6 0 0 596.01 434.00
  L 596.10 429.80
  Q 596.11 429.14 596.77 429.13
  L 604.96 428.95
  A 1.01 1.00 1.6 0 0 605.94 428.03
  L 606.23 424.48
  Q 606.27 423.99 606.77 423.99
  L 610.80 424.01
  A 1.17 1.17 0.0 0 0 611.97 422.94
  L 612.26 419.72
  A 0.77 0.77 0.0 0 1 613.03 419.02
  L 616.02 419.01
  A 0.90 0.90 0.0 0 0 616.92 418.16
  L 617.10 414.91
  Q 617.14 414.22 617.84 414.20
  L 622.13 414.12
  Z"
/>
<path d="
  M 536.03 444.97
  L 550.24 445.02
  A 0.63 0.63 0.0 0 1 550.87 445.65
  L 550.85 460.00
  L 536.67 459.96
  A 0.62 0.61 0.5 0 1 536.06 459.35
  L 536.03 444.97
  Z"
/>
</g>
<g fill="#bb5b4c">
<path d="
  M 541.31 318.93
  L 541.20 328.32
  A 0.70 0.70 0.0 0 0 541.92 329.03
  L 544.90 328.98
  Q 545.84 328.96 545.85 329.90
  L 545.95 343.04
  Q 545.96 344.04 544.96 344.01
  L 541.80 343.93
  A 0.77 0.76 -89.3 0 0 541.02 344.70
  L 541.01 362.93
  A 1.12 1.11 -1.0 0 0 542.18 364.05
  L 545.15 363.92
  A 0.74 0.74 0.0 0 1 545.93 364.66
  L 545.91 378.08
  A 0.96 0.95 -88.6 0 1 544.92 379.03
  L 542.02 378.93
  A 0.93 0.92 -88.5 0 0 541.06 379.85
  L 540.97 388.29
  A 0.73 0.72 -89.2 0 1 540.24 389.01
  L 536.06 388.97
  L 535.96 319.76
  Q 535.96 318.95 536.77 318.95
  L 541.31 318.93
  Z"
/>
<path d="
  M 607.28 319.11
  Q 605.60 319.18 605.90 323.21
  A 0.67 0.67 0.0 0 1 605.24 323.93
  L 596.70 324.10
  A 0.70 0.70 0.0 0 0 596.01 324.80
  L 595.99 328.20
  A 0.70 0.69 -90.0 0 1 595.30 328.90
  L 582.01 328.97
  A 0.98 0.98 0.0 0 1 581.03 328.01
  L 580.99 324.81
  Q 580.98 324.14 580.31 324.11
  L 571.97 323.81
  A 0.93 0.92 0.0 0 1 571.07 322.92
  L 570.97 319.19
  L 607.28 319.11
  Z"
/>
<path d="
  M 677.06 394.20
  L 672.78 394.19
  Q 672.22 394.19 672.18 394.75
  L 671.95 398.22
  A 0.69 0.69 0.0 0 1 671.28 398.87
  L 662.80 399.15
  A 0.60 0.60 0.0 0 0 662.23 399.69
  L 661.92 403.26
  A 0.73 0.72 -88.7 0 1 661.22 403.93
  L 657.84 404.02
  Q 657.23 404.04 657.17 404.65
  L 656.82 408.06
  Q 656.74 408.87 655.93 408.94
  L 653.18 409.17
  A 0.96 0.95 89.7 0 0 652.31 410.06
  L 651.65 418.57
  A 0.48 0.47 1.3 0 1 651.18 419.01
  L 647.73 419.10
  A 0.69 0.69 0.0 0 0 647.05 419.77
  L 646.96 422.81
  Q 646.93 423.85 645.90 423.86
  L 638.04 424.00
  Q 637.07 424.02 637.04 423.04
  L 636.91 419.82
  Q 636.88 419.02 636.08 419.01
  L 633.04 418.99
  A 1.00 1.00 0.0 0 1 632.05 418.04
  L 631.87 414.98
  Q 631.84 414.31 631.16 414.29
  L 625.53 414.13
  L 622.13 414.12
  L 617.84 414.20
  Q 617.14 414.22 617.10 414.91
  L 616.92 418.16
  A 0.90 0.90 0.0 0 1 616.02 419.01
  L 613.03 419.02
  A 0.77 0.77 0.0 0 0 612.26 419.72
  L 611.97 422.94
  A 1.17 1.17 0.0 0 1 610.80 424.01
  L 606.77 423.99
  Q 606.27 423.99 606.23 424.48
  L 605.94 428.03
  A 1.01 1.00 1.6 0 1 604.96 428.95
  L 596.77 429.13
  Q 596.11 429.14 596.10 429.80
  L 596.01 434.00
  A 1.01 1.00 0.6 0 1 595.00 434.98
  L 581.77 435.01
  A 0.72 0.72 0.0 0 0 581.05 435.73
  L 580.95 449.03
  A 0.98 0.98 0.0 0 1 579.97 450.00
  L 576.80 449.99
  Q 576.27 449.99 576.26 450.53
  L 576.08 459.96
  L 565.95 459.98
  L 565.91 450.68
  Q 565.91 450.02 565.25 450.01
  L 562.08 450.00
  A 0.93 0.92 -0.0 0 1 561.15 449.08
  L 561.16 435.88
  Q 561.16 435.18 561.86 435.14
  L 565.07 434.97
  A 0.79 0.78 88.5 0 0 565.81 434.18
  L 565.82 414.55
  A 0.53 0.52 0.6 0 0 565.30 414.03
  L 561.81 413.99
  A 0.67 0.67 0.0 0 1 561.15 413.31
  L 561.27 399.88
  Q 561.28 399.29 561.87 399.23
  L 565.05 398.95
  A 0.79 0.79 0.0 0 0 565.76 398.19
  L 566.02 389.89
  Q 566.05 389.07 566.86 389.05
  L 570.08 388.98
  A 0.84 0.84 0.0 0 0 570.90 388.17
  L 571.03 384.98
  A 0.93 0.93 0.0 0 1 571.93 384.08
  L 580.28 383.83
  Q 580.88 383.82 580.90 383.22
  L 581.03 380.15
  A 1.10 1.09 -89.2 0 1 582.10 379.10
  L 595.31 378.84
  A 0.46 0.46 0.0 0 0 595.77 378.42
  Q 596.41 371.68 596.04 365.06
  A 0.99 0.98 87.8 0 1 597.00 364.01
  L 600.03 363.95
  A 0.94 0.94 0.0 0 0 600.96 363.01
  L 601.01 355.10
  A 1.13 1.13 0.0 0 1 602.14 353.97
  L 610.98 353.97
  A 0.95 0.95 0.0 0 1 611.93 354.90
  L 612.10 363.29
  A 0.70 0.69 89.1 0 0 612.79 363.97
  L 616.16 364.01
  A 0.66 0.65 89.6 0 1 616.81 364.66
  L 616.81 378.34
  A 0.66 0.65 90.0 0 1 616.16 379.00
  L 612.96 379.00
  Q 612.17 379.00 612.17 379.79
  L 612.25 393.23
  A 0.64 0.64 0.0 0 0 612.85 393.87
  L 616.18 394.03
  Q 616.79 394.06 616.83 394.67
  L 617.05 397.91
  A 1.00 0.99 88.7 0 0 618.02 398.84
  L 622.05 398.94
  L 626.98 398.93
  L 631.10 398.71
  Q 631.71 398.68 631.76 398.07
  L 632.03 395.20
  A 1.15 1.14 89.7 0 1 633.04 394.17
  L 636.14 393.85
  A 0.77 0.75 -1.0 0 0 636.82 393.16
  L 637.09 389.92
  A 0.82 0.81 -0.5 0 1 637.82 389.19
  L 641.15 388.87
  A 0.73 0.73 0.0 0 0 641.81 388.19
  L 642.04 384.96
  Q 642.10 384.13 642.92 384.09
  L 646.21 383.90
  A 0.73 0.73 0.0 0 0 646.91 383.20
  L 647.06 379.91
  Q 647.09 379.17 647.83 379.12
  L 651.26 378.88
  A 0.67 0.66 89.5 0 0 651.87 378.25
  L 652.03 374.93
  Q 652.06 374.40 652.57 374.25
  Q 654.08 373.81 655.72 373.93
  Q 656.78 374.01 656.85 372.95
  L 657.04 370.20
  A 1.10 1.10 0.0 0 0 655.95 369.02
  L 653.01 368.99
  A 1.00 1.00 0.0 0 1 652.01 368.01
  L 651.97 364.62
  A 0.62 0.61 89.5 0 0 651.36 364.01
  L 647.75 364.00
  Q 647.01 364.00 647.01 363.25
  L 646.99 359.74
  A 0.75 0.74 -0.0 0 0 646.24 359.00
  L 643.13 359.00
  Q 642.02 359.00 642.01 357.88
  L 641.96 350.17
  Q 641.95 349.04 643.08 349.03
  L 651.28 348.96
  A 0.73 0.72 89.6 0 0 652.00 348.22
  L 651.95 344.96
  A 0.86 0.85 -1.3 0 1 652.79 344.09
  L 661.25 343.95
  A 0.70 0.69 -0.4 0 0 661.94 343.26
  L 661.97 339.03
  L 666.23 338.98
  Q 666.99 338.97 666.99 338.21
  L 667.00 334.77
  Q 667.01 334.00 666.23 333.99
  L 661.95 333.95
  L 661.97 329.73
  A 0.71 0.70 0.8 0 0 661.27 329.02
  L 652.97 328.97
  A 0.99 0.99 0.0 0 1 651.99 327.98
  L 652.00 324.99
  Q 652.00 324.23 651.24 324.19
  L 643.01 323.82
  Q 642.49 323.80 642.32 323.30
  Q 641.69 321.43 642.01 319.06
  L 676.24 319.00
  Q 677.08 318.99 677.08 319.83
  L 677.06 394.20
  Z"
/>
<path d="
  M 677.02 424.00
  L 676.97 459.60
  A 0.38 0.37 -90.0 0 1 676.60 459.98
  L 642.20 459.99
  L 642.14 455.81
  A 0.78 0.78 0.0 0 1 642.91 455.01
  L 646.24 454.99
  A 0.74 0.74 0.0 0 0 646.97 454.26
  L 647.02 450.89
  A 0.85 0.85 0.0 0 1 647.86 450.05
  L 656.26 449.94
  A 0.70 0.70 0.0 0 0 656.96 449.25
  L 657.04 445.88
  A 0.81 0.80 89.6 0 1 657.81 445.09
  L 661.02 444.97
  A 1.00 0.99 89.1 0 0 661.97 443.98
  L 662.01 440.91
  A 0.83 0.83 0.0 0 1 662.80 440.08
  L 665.84 439.94
  Q 666.81 439.89 666.85 438.92
  L 667.19 429.91
  A 0.91 0.91 0.0 0 1 668.09 429.03
  L 671.26 428.98
  A 0.75 0.75 0.0 0 0 672.00 428.24
  L 672.01 424.75
  A 0.73 0.73 0.0 0 1 672.74 424.02
  L 677.02 424.00
  Z"
/>
</g>
<g fill="#eabf77">
<path d="
  M 621.98 319.07
  L 626.78 319.05
  L 627.01 332.95
  Q 627.02 333.96 628.03 333.96
  L 661.95 333.95
  L 666.23 333.99
  Q 667.01 334.00 667.00 334.77
  L 666.99 338.21
  Q 666.99 338.97 666.23 338.98
  L 661.97 339.03
  L 627.39 338.94
  A 0.37 0.36 90.0 0 0 627.03 339.31
  L 626.98 398.93
  L 622.05 398.94
  L 621.88 340.10
  Q 621.88 338.99 620.77 339.00
  L 591.75 339.17
  A 0.72 0.72 0.0 0 0 591.03 339.93
  C 591.45 348.30 591.93 357.02 591.20 365.36
  Q 590.86 369.24 591.18 373.17
  A 0.96 0.96 0.0 0 1 590.22 374.21
  L 556.72 374.18
  A 0.60 0.60 0.0 0 0 556.12 374.78
  L 556.01 408.26
  A 0.77 0.77 0.0 0 1 555.24 409.02
  L 537.01 409.00
  Q 536.46 409.00 536.30 408.48
  Q 535.95 407.37 536.10 406.01
  L 536.04 403.82
  L 550.11 403.93
  Q 550.98 403.94 550.98 403.08
  L 551.00 369.98
  A 1.03 1.02 -90.0 0 1 552.02 368.95
  L 584.98 368.95
  A 0.94 0.93 -0.0 0 0 585.92 368.02
  L 585.99 334.97
  A 1.05 1.04 -90.0 0 1 587.03 333.92
  L 621.55 333.86
  A 0.41 0.41 0.0 0 0 621.96 333.45
  L 621.98 319.07
  Z"
/>
<path d="
  M 622.13 414.12
  L 625.53 414.13
  Q 626.04 414.05 626.40 414.16
  Q 626.90 414.32 626.92 414.84
  Q 627.58 429.53 626.91 444.41
  Q 626.88 445.01 626.28 445.01
  L 591.96 445.00
  A 0.84 0.84 0.0 0 0 591.12 445.84
  L 591.04 459.99
  L 585.87 459.99
  L 585.96 441.03
  A 1.02 1.02 0.0 0 1 586.97 440.01
  C 593.98 439.88 600.81 439.51 607.92 439.79
  Q 614.31 440.05 621.08 439.93
  A 0.99 0.99 0.0 0 0 622.06 438.94
  L 622.13 414.12
  Z"
/>
<path d="
  M 556.17 459.98
  L 550.85 460.00
  L 550.87 445.65
  A 0.63 0.63 0.0 0 0 550.24 445.02
  L 536.03 444.97
  L 536.06 440.19
  L 554.80 440.00
  A 1.21 1.21 0.0 0 1 556.02 441.20
  L 556.17 459.98
  Z"
/>
</g>
</svg>
