<svg width="69" height="69" viewBox="0 0 69 69" fill="none" xmlns="http://www.w3.org/2000/svg">
<circle cx="34.5986" cy="34.6003" r="34" fill="#686868"/>
<path d="M29.034 56.2356L32.1249 56.2356V53.1447L29.034 53.1447L29.034 56.2356Z" fill="#D9D9D9"/>
<path d="M38.3067 56.2356L41.3976 56.2356V53.1447L38.3067 53.1447V56.2356Z" fill="#D9D9D9"/>
<path d="M32.1249 22.2356L35.2158 22.2356V19.1447L32.1249 19.1447V22.2356Z" fill="#D9D9D9"/>
<path d="M29.034 16.0538L32.1249 16.0538L32.1249 12.9629L29.034 12.9629L29.034 16.0538Z" fill="#D9D9D9"/>
<path d="M41.3976 53.1447L44.4885 53.1447L44.4885 50.0538L47.5794 50.0538L47.5794 46.9629H50.6703V43.872L50.6703 40.7811L47.5794 40.7811V37.6902H44.4885L44.4885 34.5993L44.4885 31.5083V28.4174L41.3976 28.4174V31.5083L38.3067 31.5083L38.3067 34.5993H35.2158L35.2158 31.5083V28.4174L35.2158 25.3265L32.1249 25.3265L32.1249 22.2356L29.034 22.2356L29.034 28.4174L25.943 28.4174L25.943 31.5083L25.943 34.5993L22.8521 34.5993L22.8521 37.6902H19.7612L19.7612 40.7811L19.7612 43.872L19.7612 46.9629L22.8521 46.9629L22.8521 50.0538H25.943L25.943 53.1447L29.034 53.1447L29.034 50.0538L29.034 46.9629L29.034 43.872L32.1249 43.872L32.1249 40.7811L32.1249 37.6902L29.034 37.6902L29.034 34.5993L32.1249 34.5993L32.1249 37.6902L35.2158 37.6902L35.2158 40.7811H38.3067L38.3067 43.872L41.3976 43.872V46.9629L41.3976 50.0538L41.3976 53.1447Z" fill="#D9D9D9"/>
</svg>
