<svg width="19" height="22" viewBox="0 0 19 22" fill="none" xmlns="http://www.w3.org/2000/svg">
<path d="M6.24736 12.3716H4.64281C4.36202 12.3716 4.16145 12.171 4.16145 11.8902V10.2857C4.16145 10.045 4.36202 9.80429 4.64281 9.80429H6.24736C6.48804 9.80429 6.72872 10.045 6.72872 10.2857V11.8902C6.72872 12.171 6.48804 12.3716 6.24736 12.3716ZM10.5796 11.8902C10.5796 12.171 10.3389 12.3716 10.0983 12.3716H8.49372C8.21292 12.3716 8.01235 12.171 8.01235 11.8902V10.2857C8.01235 10.045 8.21292 9.80429 8.49372 9.80429H10.0983C10.3389 9.80429 10.5796 10.045 10.5796 10.2857V11.8902ZM14.4305 11.8902C14.4305 12.171 14.1898 12.3716 13.9492 12.3716H12.3446C12.0638 12.3716 11.8633 12.171 11.8633 11.8902V10.2857C11.8633 10.045 12.0638 9.80429 12.3446 9.80429H13.9492C14.1898 9.80429 14.4305 10.045 14.4305 10.2857V11.8902ZM10.5796 15.7411C10.5796 16.0219 10.3389 16.2225 10.0983 16.2225H8.49372C8.21292 16.2225 8.01235 16.0219 8.01235 15.7411V14.1366C8.01235 13.8959 8.21292 13.6552 8.49372 13.6552H10.0983C10.3389 13.6552 10.5796 13.8959 10.5796 14.1366V15.7411ZM6.72872 15.7411C6.72872 16.0219 6.48804 16.2225 6.24736 16.2225H4.64281C4.36202 16.2225 4.16145 16.0219 4.16145 15.7411V14.1366C4.16145 13.8959 4.36202 13.6552 4.64281 13.6552H6.24736C6.48804 13.6552 6.72872 13.8959 6.72872 14.1366V15.7411ZM14.4305 15.7411C14.4305 16.0219 14.1898 16.2225 13.9492 16.2225H12.3446C12.0638 16.2225 11.8633 16.0219 11.8633 15.7411V14.1366C11.8633 13.8959 12.0638 13.6552 12.3446 13.6552H13.9492C14.1898 13.6552 14.4305 13.8959 14.4305 14.1366V15.7411ZM18.2814 5.31157V19.4316C18.2814 20.5146 17.3989 21.357 16.356 21.357H2.236C1.15293 21.357 0.310547 20.5146 0.310547 19.4316V5.31157C0.310547 4.26862 1.15293 3.38612 2.236 3.38612H4.16145V1.30021C4.16145 1.05953 4.36202 0.818848 4.64281 0.818848H6.24736C6.48804 0.818848 6.72872 1.05953 6.72872 1.30021V3.38612H11.8633V1.30021C11.8633 1.05953 12.0638 0.818848 12.3446 0.818848H13.9492C14.1898 0.818848 14.4305 1.05953 14.4305 1.30021V3.38612H16.356C17.3989 3.38612 18.2814 4.26862 18.2814 5.31157ZM16.356 19.1909V7.23702H2.236V19.1909C2.236 19.3513 2.31623 19.4316 2.47668 19.4316H16.1153C16.2356 19.4316 16.356 19.3513 16.356 19.1909Z" fill="black"/>
</svg>
