<svg  viewBox="0 0 70 70" fill="current" xmlns="http://www.w3.org/2000/svg">
<path d="M5 4.37114e-07L2.18557e-07 2.18557e-07L0 5H5V4.37114e-07Z" />
<path d="M70 5V4.37114e-07L65 0V5H70Z" />
<path d="M65 70H70V65H65V70Z" />
<path d="M8.74228e-07 65L0 70H5L5 65H8.74228e-07Z" />
<path d="M5 15L10 15L10 20H15L15 25H20V30H25L25 40L20 40V45H15V50H10L10 55H5L5 65H15L15 60H20V55H25V50H30L30 45L40 45L40 50H45V55H50V60H55V65L65 65V55L60 55L60 50H55V45H50V40H45L45 30H50V25H55L55 20H60V15H65V5L55 5V10H50V15L45 15V20L40 20V25L30 25V20H25V15H20V10H15V5L5 5V15Z" />
</svg>
