<svg width="69" height="69" viewBox="0 0 69 69" fill="none" xmlns="http://www.w3.org/2000/svg">
<circle cx="34.5986" cy="34.6003" r="34" fill="#686868"/>
<path d="M35.84 25.3265L35.84 19.1447L32.7491 19.1447V22.2356L35.84 22.2356L35.84 25.3265Z" fill="#D9D9D9"/>
<path d="M37.6944 34.5993L31.5127 34.5993L31.5127 37.6901L25.3309 37.6901L25.3309 40.781L19.1491 40.781L19.1491 43.8719L12.9673 43.8721L12.9673 46.963L22.24 46.963L22.24 56.2357L46.9672 56.2356L46.9672 46.9629L56.24 46.9628L56.24 43.8719L50.0581 43.8721V40.7812L43.8763 40.7812V37.6902L37.6944 37.6902L37.6944 34.5993Z" fill="#D9D9D9"/>
<path d="M23.4764 12.9629L23.4764 28.4174L29.6582 28.4174L29.6582 19.1447L32.7491 19.1447L32.7491 16.0538L29.6582 16.0538L29.6582 12.9629L23.4764 12.9629Z" fill="#D9D9D9"/>
<path d="M38.9309 28.4174L45.1127 28.4174L45.1127 12.9629L38.9309 12.9629L38.9309 22.2356L35.84 22.2356L35.84 25.3265L38.9309 25.3265L38.9309 28.4174Z" fill="#D9D9D9"/>
</svg>
