<svg width="77" height="77" viewBox="0 0 77 77" fill="none" xmlns="http://www.w3.org/2000/svg">
<circle cx="38.5352" cy="38.5537" r="38.25" fill="#686868"/>
<path d="M39.0625 59.7037L39.0625 50.1499L42.2266 50.1499L42.2266 40.596H45.3906L45.3906 34.2268L48.5547 34.2268L48.5547 27.8576L51.7188 27.8576V24.6729L54.8828 24.6729L54.8828 21.4883L60.5781 21.4883L60.5781 18.3037L54.8828 18.3037L51.7188 18.3037L51.7188 21.4883L48.5547 21.4883L48.5547 24.6729L45.3906 24.6729V27.8576L42.2266 27.8576L42.2266 31.0422L39.0625 31.0422L39.0625 34.2268H35.8984L35.8984 40.596L32.7344 40.596L32.7344 37.4114L29.5703 37.4114L29.5703 34.2268H26.4063L26.4063 31.0422L20.0781 31.0422L20.0781 34.2268L23.2422 34.2268L23.2422 37.4114L26.4063 37.4114L26.4063 43.7806H29.5703L29.5703 53.3345L32.7344 53.3345L32.7344 59.7037L39.0625 59.7037Z" fill="#D9D9D9"/>
</svg>
