<svg width="68" height="68" viewBox="0 0 68 68" fill="none" xmlns="http://www.w3.org/2000/svg">
<path d="M34 68C52.7777 68 68 52.7777 68 34C68 15.2223 52.7777 0 34 0C15.2223 0 0 15.2223 0 34C0 52.7777 15.2223 68 34 68Z" fill="#686868"/>
<path d="M15.4551 52.5454V42.2424H19.5763V48.4242H25.7581V52.5454H15.4551ZM42.243 52.5454V48.4242H48.4248V42.2424H52.546V52.5454H42.243ZM15.4551 25.7576V15.4545H25.7581V19.5757H19.5763V25.7576H15.4551ZM48.4248 25.7576V19.5757H42.243V15.4545H52.546V25.7576H48.4248Z" fill="#D9D9D9"/>
</svg>
