<svg width="68" height="68" viewBox="0 0 68 68" fill="none" xmlns="http://www.w3.org/2000/svg">
<path d="M34 68C52.7777 68 68 52.7777 68 34C68 15.2223 52.7777 0 34 0C15.2223 0 0 15.2223 0 34C0 52.7777 15.2223 68 34 68Z" fill="#686868"/>
<path d="M21.6369 52.5454V46.3636H15.4551V42.2424H25.7581V52.5454H21.6369ZM42.243 52.5454V42.2424H52.546V46.3636H46.3642V52.5454H42.243ZM15.4551 25.7576V21.6363H21.6369V15.4545H25.7581V25.7576H15.4551ZM42.243 25.7576V15.4545H46.3642V21.6363H52.546V25.7576H42.243Z" fill="#D9D9D9"/>
</svg>
