<svg width="69" height="69" viewBox="0 0 69 69" fill="none" xmlns="http://www.w3.org/2000/svg">
<circle cx="34.5977" cy="34.6003" r="34" fill="#686868"/>
<path d="M29.8969 34.6003V39.3003L36.9469 39.3003V34.6003L29.8969 34.6003Z" fill="#D9D9D9"/>
<path d="M43.9969 29.9003V34.6003L48.6969 34.6003V29.9003L43.9969 29.9003Z" fill="#D9D9D9"/>
<path d="M43.9969 25.2003V29.9003L48.6969 29.9003V25.2003L43.9969 25.2003Z" fill="#D9D9D9"/>
<path d="M43.9969 20.5003V25.2003L48.6969 25.2003V20.5003L43.9969 20.5003Z" fill="#D9D9D9"/>
<path d="M20.4969 20.5003V25.2003L25.1969 25.2003V20.5003L20.4969 20.5003Z" fill="#D9D9D9"/>
<path d="M15.7969 25.2003V29.9003L20.4969 29.9003V25.2003L15.7969 25.2003Z" fill="#D9D9D9"/>
<path d="M20.4969 25.2003V29.9003H25.1969V25.2003L20.4969 25.2003Z" fill="#D9D9D9"/>
<path d="M15.7969 20.5003V25.2003L20.4969 25.2003V20.5003H15.7969Z" fill="#D9D9D9"/>
<path d="M29.8969 48.7003V53.4003L34.5969 53.4003V48.7003L29.8969 48.7003Z" fill="#D9D9D9"/>
<path d="M34.5969 48.7003V53.4003H39.2969V48.7003H34.5969Z" fill="#D9D9D9"/>
<path d="M29.8969 39.3003V44.0003L34.5969 44.0003V39.3003H29.8969Z" fill="#D9D9D9"/>
<path d="M34.5969 39.3003V44.0003H39.2969V39.3003H34.5969Z" fill="#D9D9D9"/>
<path d="M48.6969 20.5003V39.3003L53.3969 39.3002V20.5003H48.6969Z" fill="#D9D9D9"/>
<path d="M36.9469 34.6003V39.3003L48.6969 39.3003V34.6003L36.9469 34.6003Z" fill="#D9D9D9"/>
<path d="M36.9469 15.8003V20.5003L43.9969 20.5003V15.8003L36.9469 15.8003Z" fill="#D9D9D9"/>
<path d="M25.1969 15.8003V20.5003H36.9469V15.8003H25.1969Z" fill="#D9D9D9"/>
</svg>
