<svg width="57" height="57" viewBox="0 0 57 57" fill="none" xmlns="http://www.w3.org/2000/svg">
<circle cx="28.3171" cy="28.3171" r="28.3171" fill="#635A44"/>
<path fill-rule="evenodd" clip-rule="evenodd" d="M22.7254 37.1216H19.037V40.8099H22.7254V37.1216Z" fill="#FFFFFE"/>
<path d="M15.3487 37.1216V40.8099H19.037V37.1216H15.3487Z" fill="#6F6F6F"/>
<path fill-rule="evenodd" clip-rule="evenodd" d="M37.4789 37.1216H33.7905V40.8099H37.4789V37.1216Z" fill="#FFFFFE"/>
<path d="M30.1022 37.1216V40.8099H33.7905V37.1216H30.1022Z" fill="#6F6F6F"/>
<path d="M11.6602 14.9917V18.6801H15.3485V14.9917H11.6602Z" fill="#6F6F6F"/>
<path d="M37.4787 26.0568H33.7904V29.7452H37.4787V26.0568Z" fill="#6F6F6F"/>
<path fill-rule="evenodd" clip-rule="evenodd" d="M37.4787 29.7452V33.4335H19.0369V18.6801H44.8555V26.0568H41.1671V22.3684H37.4787H22.7253V29.7452H33.7904H37.4787ZM37.4787 29.7452V26.0568H41.1671V29.7452H37.4787ZM15.3485 18.6801H19.0369V14.9917H15.3485V18.6801Z" fill="#FFFFFE"/>
<path d="M15.3485 29.7452V33.4335H19.0369V18.6801H15.3485V29.7452Z" fill="#6F6F6F"/>
<path d="M37.4787 22.3684V26.0568H41.1671V22.3684H37.4787Z" fill="#6F6F6F"/>
</svg>
