<svg width="77" height="77" viewBox="0 0 77 77" fill="none" xmlns="http://www.w3.org/2000/svg">
<circle cx="38.5391" cy="38.5503" r="38.25" fill="#686868"/>
<path d="M38.5431 29.4739L31.5885 29.4739L31.5885 32.9512H28.1112L28.1112 36.4284L24.634 36.4284L24.634 43.383L28.1112 43.383L28.1112 46.8602L31.5885 46.8602L31.5885 50.3375L45.4976 50.3716L45.4976 46.8895H48.9749V43.4171L52.4521 43.4171L52.4521 36.4625L59.4067 36.4625L59.4067 39.9398L62.884 39.9398L62.884 46.8869L59.4067 46.8869L59.4067 53.8489L55.9294 53.8489L55.9294 57.3262L48.9749 57.3262L48.9749 60.8034L45.4976 60.7978L42.0203 60.7921V64.2807L35.0658 64.2807V60.7807L31.5885 60.775L28.1112 60.7693L28.1112 57.2921L21.1567 57.2921L21.1567 53.8148L17.6794 53.8148L17.6794 46.8602L14.2021 46.8602L14.2021 43.4268L14.2021 36.4625L14.2021 32.9512L17.6794 32.9512L17.6794 25.9966L21.1567 25.9966L21.1567 22.5193L28.1112 22.5193L28.1112 19.0421L38.5431 19.0421L38.5431 12.1216L42.0203 12.1216L42.0203 15.6037L45.4976 15.6037L45.4976 19.0761L48.9749 19.0761L48.9749 22.5534L52.4521 22.5534V26.0307L48.9749 26.0307L48.9749 29.5079L45.4976 29.5079L45.4976 32.9852L42.0203 32.9852L42.0203 36.4625H38.5431L38.5431 29.4739Z" fill="#D9D9D9"/>
</svg>
