<svg width="68" height="68" viewBox="0 0 68 68" fill="none" xmlns="http://www.w3.org/2000/svg">
<path d="M34 68C52.7777 68 68 52.7777 68 34C68 15.2223 52.7777 0 34 0C15.2223 0 0 15.2223 0 34C0 52.7777 15.2223 68 34 68Z" fill="#686868"/>
<path d="M16.974 44.6854V42.1139H22.117V21.5425H27.259H31.374V18.9711H41.145V16.3997H50.402V44.6854H47.831V47.2568H40.117V44.6854H37.545V39.5425H40.117V36.9711H45.259V24.1139H41.145V26.6854H31.374V29.2568H27.259V49.8282H24.688V52.3997H16.974V49.8282H14.402V44.6854H16.974Z" fill="#D9D9D9"/>
</svg>
