<svg width="68" height="68" viewBox="0 0 68 68" fill="none" xmlns="http://www.w3.org/2000/svg">
<path d="M34 68C52.7777 68 68 52.7777 68 34C68 15.2223 52.7777 0 34 0C15.2223 0 0 15.2223 0 34C0 52.7777 15.2223 68 34 68Z" fill="#686868"/>
<path d="M47.6154 44.8571H50.3077V47.5714H47.6154V44.8571Z" fill="#D9D9D9"/>
<path d="M50.3077 47.5714H53V50.2857H50.3077V47.5714Z" fill="#D9D9D9"/>
<path d="M26.0769 23.1429H28.7692V25.8571H26.0769V23.1429Z" fill="#D9D9D9"/>
<path d="M44.9231 42.1429H47.6154V44.8571H44.9231V42.1429Z" fill="#D9D9D9"/>
<path d="M23.3846 20.4286H26.0769V23.1429H23.3846V20.4286Z" fill="#D9D9D9"/>
<path d="M42.2308 39.4286H44.9231V42.1429H42.2308V39.4286Z" fill="#D9D9D9"/>
<path d="M20.6923 17.7143H23.3846V20.4286H20.6923V17.7143Z" fill="#D9D9D9"/>
<path d="M18 15H20.6923V17.7143H18V15Z" fill="#D9D9D9"/>
<path d="M39.5385 44.8571H42.2308V53H39.5385V50.2857H36.8462V47.5714H34.1538V44.8571H31.4615V42.1429H28.7692V39.4286H18V25.8571H23.3846V28.5714H26.0769V31.2857H28.7692V34H31.4615V36.7143H34.1538V39.4286H36.8462V42.1429H39.5385V44.8571Z" fill="#D9D9D9"/>
<path d="M42.2308 15H39.5385V17.7143H36.8462V20.4286H34.1538V23.1429H31.4615V25.8571H28.7692V28.5714H31.4615V31.2857H34.1538V34H36.8462V36.7143H39.5385V39.4286H42.2308V15Z" fill="#D9D9D9"/>
</svg>
