<svg width="69" height="69" viewBox="0 0 69 69" fill="none" xmlns="http://www.w3.org/2000/svg">
<circle cx="34.5977" cy="34.6003" r="34" fill="#686868"/>
<path d="M21.5652 43.9565H24.6087V47H21.5652V43.9565Z" fill="#D9D9D9"/>
<path d="M20.0435 43.9565H23.087V47H20.0435V43.9565Z" fill="#D9D9D9"/>
<path d="M48.9565 43.9565H45.913V47H48.9565V43.9565Z" fill="#D9D9D9"/>
<path d="M23.087 40.913H26.1304V43.9565H23.087V40.913Z" fill="#D9D9D9"/>
<path d="M21.5652 40.913H24.6087V43.9565H21.5652V40.913Z" fill="#D9D9D9"/>
<path d="M47.4348 40.913H44.3913V43.9565H47.4348V40.913Z" fill="#D9D9D9"/>
<path d="M24.6087 37.8696H27.6522V40.913H24.6087L24.6087 37.8696Z" fill="#D9D9D9"/>
<path d="M23.087 37.8696H26.1304V40.913H23.087V37.8696Z" fill="#D9D9D9"/>
<path d="M26.1304 34.8261H29.1739V37.8696L26.1304 37.8696V34.8261Z" fill="#D9D9D9"/>
<path d="M24.6087 34.8261H27.6522V37.8696H24.6087V34.8261Z" fill="#D9D9D9"/>
<path d="M44.3913 34.8261H41.3478V37.8696H44.3913V34.8261Z" fill="#D9D9D9"/>
<path d="M27.6522 31.7826H30.6957V34.8261H27.6522V31.7826Z" fill="#D9D9D9"/>
<path d="M26.1304 31.7826H29.1739V34.8261H26.1304V31.7826Z" fill="#D9D9D9"/>
<path d="M42.8696 31.7826H39.8261V34.8261H42.8696V31.7826Z" fill="#D9D9D9"/>
<path d="M29.1739 28.7391H32.2174V31.7826H29.1739V28.7391Z" fill="#D9D9D9"/>
<path d="M28.413 28.7391H31.4565V31.7826H28.413V28.7391Z" fill="#D9D9D9"/>
<path d="M41.3478 28.7391H38.3043V31.7826H41.3478V28.7391Z" fill="#D9D9D9"/>
<path d="M30.6957 25.6957H33.7391V28.7391H30.6957V25.6957Z" fill="#D9D9D9"/>
<path d="M39.8261 25.6957H36.7826V28.7391H39.8261V25.6957Z" fill="#D9D9D9"/>
<path d="M29.1739 22.6522H32.2174V25.6957H29.1739V22.6522Z" fill="#D9D9D9"/>
<path d="M33.7391 27.2174H36.7826V30.2609H33.7391V27.2174Z" fill="#D9D9D9"/>
<path d="M38.3043 22.6522H41.3478V25.6957H38.3043V22.6522Z" fill="#D9D9D9"/>
<path d="M36.7826 19.6087H39.8261V22.6522H36.7826V19.6087Z" fill="#D9D9D9"/>
<path d="M30.6957 19.6087H33.7391V22.6522H30.6957V19.6087Z" fill="#D9D9D9"/>
<path d="M33.7391 18.087H36.7826V21.1304H33.7391V18.087Z" fill="#D9D9D9"/>
<path d="M33.7391 15.0435H36.7826V18.087H33.7391V15.0435Z" fill="#D9D9D9"/>
<path d="M32.2174 12H35.2609V15.0435H32.2174V12Z" fill="#D9D9D9"/>
<path d="M35.2609 12H38.3043V15.0435H35.2609V12Z" fill="#D9D9D9"/>
<path d="M20.0435 34.8261H23.087V37.8696L20.0435 37.8696V34.8261Z" fill="#D9D9D9"/>
<path d="M17 31.7826H20.0435V34.8261H17V31.7826Z" fill="#D9D9D9"/>
<path d="M27.6522 39.3913H30.6957V42.4348H27.6522V39.3913Z" fill="#D9D9D9"/>
<path d="M30.6957 40.913H33.7391V43.9565H30.6957V40.913Z" fill="#D9D9D9"/>
<path d="M33.7391 40.913H36.7826V43.9565H33.7391V40.913Z" fill="#D9D9D9"/>
<path d="M36.7826 40.913H39.8261V43.9565H36.7826V40.913Z" fill="#D9D9D9"/>
<path d="M39.8261 39.3913H42.8696V42.4348H39.8261V39.3913Z" fill="#D9D9D9"/>
<path d="M45.913 34.8261H48.9565V37.8696H45.913V34.8261Z" fill="#D9D9D9"/>
<path d="M20.0435 47H23.087V50.0435H20.0435V47Z" fill="#D9D9D9"/>
<path d="M18.5217 47H21.5652V50.0435H18.5217V47Z" fill="#D9D9D9"/>
<path d="M17.7609 50.0435H20.8043V53.087H17.7609V50.0435Z" fill="#D9D9D9"/>
<path d="M17.7609 50.0435H20.8043V53.087H17.7609V50.0435Z" fill="#D9D9D9"/>
<path d="M48.9565 50.0435H52V53.087H48.9565V50.0435Z" fill="#D9D9D9"/>
<path d="M47.4348 47H50.4783V50.0435H47.4348V47Z" fill="#D9D9D9"/>
</svg>
