<svg width="30" height="24" viewBox="0 0 30 24" fill="none" xmlns="http://www.w3.org/2000/svg">
<path d="M29.1667 0.552734C29.5833 0.552734 30 0.910465 30 1.42151V19.1036C30 19.768 29.5313 20.3812 28.9063 20.6367L21.0417 23.2942C20.6771 23.3964 20.3646 23.4475 20 23.4475C19.6354 23.4475 19.2708 23.3964 18.9583 23.2942L10 20.1768L1.09375 23.3964C0.989583 23.4475 0.885417 23.4475 0.78125 23.4475C0.364583 23.4475 0 23.1408 0 22.6298V4.94771C0 4.28335 0.416667 3.6701 1.04167 3.41458L8.90625 0.757152C9.27083 0.654943 9.63542 0.552734 9.94792 0.552734C10.3125 0.603839 10.6771 0.654943 11.0417 0.757152L20 3.82341L28.8542 0.654943C28.9583 0.603839 29.0625 0.552734 29.1667 0.552734ZM11.6667 3.56789V18.1837L18.3333 20.4834V5.86758L11.6667 3.56789ZM2.5 20.3301L9.11458 17.8771H9.16667V3.26126L2.5 5.56096V20.3301ZM27.5 18.4904V3.7212L20.8333 6.17421V20.79L27.5 18.4904Z" fill="#635A44"/>
</svg>
