<svg width="42" height="42" viewBox="0 0 42 42" fill="none" xmlns="http://www.w3.org/2000/svg">
<path d="M0 25.5652H2.43478V37.1305H0V25.5652Z" fill="#D9D9D9"/>
<path d="M19.4783 25.5652H21.913V37.1305H19.4783V25.5652Z" fill="#D9D9D9"/>
<path d="M9.73913 39.5652H12.1739V42H9.73913V39.5652Z" fill="#D9D9D9"/>
<path d="M7.30435 38.3478H9.73913V40.7826H7.30435V38.3478Z" fill="#D9D9D9"/>
<path d="M14.6087 38.3478H12.1739V40.7826H14.6087V38.3478Z" fill="#D9D9D9"/>
<path d="M4.86957 37.1304H7.30435V39.5652H4.86957V37.1304Z" fill="#D9D9D9"/>
<path d="M17.0435 37.1304H14.6087V39.5652H17.0435V37.1304Z" fill="#D9D9D9"/>
<path d="M2.43478 35.913H4.86957V38.3478H2.43478V35.913Z" fill="#D9D9D9"/>
<path d="M19.4783 35.913H17.0435V38.3478H19.4783V35.913Z" fill="#D9D9D9"/>
<path d="M9.74032 29.2172H12.1751V31.652H9.74032V29.2172Z" fill="#D9D9D9"/>
<path d="M7.30554 27.9998H9.74032V30.4346H7.30554V27.9998Z" fill="#D9D9D9"/>
<path d="M14.6099 27.9998H12.1751V30.4346H14.6099V27.9998Z" fill="#D9D9D9"/>
<path d="M4.87075 26.7824H7.30554V29.2172H4.87075V26.7824Z" fill="#D9D9D9"/>
<path d="M17.0447 26.7824H14.6099V29.2172H17.0447V26.7824Z" fill="#D9D9D9"/>
<path d="M2.43597 25.565H4.87075V27.9998H2.43597V25.565Z" fill="#D9D9D9"/>
<path d="M19.4795 25.565H17.0447V27.9998H19.4795V25.565Z" fill="#D9D9D9"/>
<path d="M9.73913 20.0868H12.1739V17.652H9.73913V20.0868Z" fill="#D9D9D9"/>
<path d="M7.30435 21.3042H9.73913V18.8694H7.30435V21.3042Z" fill="#D9D9D9"/>
<path d="M14.6087 21.3042H12.1739V18.8694H14.6087V21.3042Z" fill="#D9D9D9"/>
<path d="M4.86957 22.5216H7.30435V20.0868H4.86957V22.5216Z" fill="#D9D9D9"/>
<path d="M17.0435 22.5216H14.6087V20.0868H17.0435V22.5216Z" fill="#D9D9D9"/>
<path d="M2.43478 23.739H4.86957V21.3042H2.43478V23.739Z" fill="#D9D9D9"/>
<path d="M0 25.5652H2.43478V23.1303H0V25.5652Z" fill="#D9D9D9"/>
<path d="M19.4783 25.5652H21.913V23.1303H19.4783V25.5652Z" fill="#D9D9D9"/>
<path d="M19.4783 23.739H17.0435V21.3042H19.4783V23.739Z" fill="#D9D9D9"/>
<path d="M19.4795 25.565L21.9147 25.565V37.1303H19.48L19.4795 25.565Z" fill="#D9D9D9"/>
<path d="M38.9582 25.565H41.393V37.1303H38.9582V25.565Z" fill="#D9D9D9"/>
<path d="M29.2191 39.565H31.6539V41.9998H29.2191V39.565Z" fill="#D9D9D9"/>
<path d="M29.2191 35.3042H31.6539V37.739H29.2191V35.3042Z" fill="#D9D9D9"/>
<path d="M29.2191 32.8694H31.6539V35.3042H29.2191V32.8694Z" fill="#D9D9D9"/>
<path d="M26.7843 38.3477H29.2191V40.7824H26.7843V38.3477Z" fill="#D9D9D9"/>
<path d="M34.0887 38.3477H31.6539V40.7824H34.0887V38.3477Z" fill="#D9D9D9"/>
<path d="M24.3495 37.1303H26.7843V39.565H24.3495V37.1303Z" fill="#D9D9D9"/>
<path d="M36.5234 37.1303H34.0887V39.565H36.5234V37.1303Z" fill="#D9D9D9"/>
<path d="M21.9147 35.9129H24.3495V38.3477H21.9147V35.9129Z" fill="#D9D9D9"/>
<path d="M38.9582 35.9129H36.5234V38.3477H38.9582V35.9129Z" fill="#D9D9D9"/>
<path d="M29.2181 29.217H31.6529V31.6518H29.2181V29.217Z" fill="#D9D9D9"/>
<path d="M26.7833 27.9996H29.2181V30.4344H26.7833V27.9996Z" fill="#D9D9D9"/>
<path d="M34.0876 27.9996H31.6529V30.4344H34.0876V27.9996Z" fill="#D9D9D9"/>
<path d="M24.3485 26.7822H26.7833V29.217H24.3485V26.7822Z" fill="#D9D9D9"/>
<path d="M36.5224 26.7822H34.0876V29.217H36.5224V26.7822Z" fill="#D9D9D9"/>
<path d="M21.913 25.5652L24.3485 25.5648V27.9996H21.9137L21.913 25.5652Z" fill="#D9D9D9"/>
<path d="M38.9572 25.5648H36.5224V27.9996H38.9572V25.5648Z" fill="#D9D9D9"/>
<path d="M29.2209 20.0868H31.6557V17.652H29.2209V20.0868Z" fill="#D9D9D9"/>
<path d="M26.7861 21.3042H29.2209V18.8694H26.7861V21.3042Z" fill="#D9D9D9"/>
<path d="M34.0905 21.3042H31.6557V18.8694H34.0905V21.3042Z" fill="#D9D9D9"/>
<path d="M24.3513 22.5216H26.7861V20.0868H24.3513V22.5216Z" fill="#D9D9D9"/>
<path d="M36.5252 22.5216H34.0905V20.0868H36.5252V22.5216Z" fill="#D9D9D9"/>
<path d="M21.9166 23.739H24.3513V21.3042H21.9166V23.739Z" fill="#D9D9D9"/>
<path d="M19.4818 25.565H21.9166V23.1303H19.4818V25.565Z" fill="#D9D9D9"/>
<path d="M38.96 25.565H41.3948V23.1303H38.96V25.565Z" fill="#D9D9D9"/>
<path d="M38.96 23.739H36.5252V21.3042H38.96V23.739Z" fill="#D9D9D9"/>
<path d="M9.73998 7.91304H12.1748V19.4783H9.73998V7.91304Z" fill="#D9D9D9"/>
<path d="M29.2182 7.91304H31.653V19.4783H29.2182V7.91304Z" fill="#D9D9D9"/>
<path d="M19.4791 21.913H21.9139V24.3478H19.4791V21.913Z" fill="#D9D9D9"/>
<path d="M17.0443 20.6957H19.4791L19.4783 23.1303L17.0443 23.1304V20.6957Z" fill="#D9D9D9"/>
<path d="M24.3487 20.6957H21.9139L21.913 23.1303L24.3487 23.1304V20.6957Z" fill="#D9D9D9"/>
<path d="M14.6095 19.4783H17.0443V21.913H14.6095V19.4783Z" fill="#D9D9D9"/>
<path d="M26.7835 19.4783H24.3487V21.913H26.7835V19.4783Z" fill="#D9D9D9"/>
<path d="M12.1748 18.2609H14.6095V20.6957H12.1748V18.2609Z" fill="#D9D9D9"/>
<path d="M29.2182 18.2609H26.7835V20.6957H29.2182V18.2609Z" fill="#D9D9D9"/>
<path d="M19.4772 11.5652H21.912V14H19.4772V11.5652Z" fill="#D9D9D9"/>
<path d="M17.0425 10.3478H19.4772V12.7826H17.0425V10.3478Z" fill="#D9D9D9"/>
<path d="M24.3468 10.3478H21.912V12.7826H24.3468V10.3478Z" fill="#D9D9D9"/>
<path d="M14.6077 9.13039H17.0425V11.5652H14.6077V9.13039Z" fill="#D9D9D9"/>
<path d="M26.7816 9.13039H24.3468V11.5652H26.7816V9.13039Z" fill="#D9D9D9"/>
<path d="M12.1729 7.913H14.6077V10.3478H12.1729V7.913Z" fill="#D9D9D9"/>
<path d="M29.2164 7.913H26.7816V10.3478H29.2164V7.913Z" fill="#D9D9D9"/>
<path d="M19.48 2.43478H21.9148V0H19.48V2.43478Z" fill="#D9D9D9"/>
<path d="M17.0452 3.65217H19.48V1.21739H17.0452V3.65217Z" fill="#D9D9D9"/>
<path d="M24.3496 3.65217H21.9148V1.21739H24.3496V3.65217Z" fill="#D9D9D9"/>
<path d="M14.6104 4.86957H17.0452V2.43478H14.6104V4.86957Z" fill="#D9D9D9"/>
<path d="M26.7844 4.86957H24.3496V2.43478H26.7844V4.86957Z" fill="#D9D9D9"/>
<path d="M12.1757 6.08696H14.6104V3.65217H12.1757V6.08696Z" fill="#D9D9D9"/>
<path d="M9.73998 7.91304H12.1748L12.1757 5.47826H9.74088L9.73998 7.91304Z" fill="#D9D9D9"/>
<path d="M29.2182 7.91304H31.653L31.6539 5.47826H29.2191L29.2182 7.91304Z" fill="#D9D9D9"/>
<path d="M29.2191 6.08696H26.7844V3.65217H29.2191V6.08696Z" fill="#D9D9D9"/>
<path d="M9.73913 35.3043H12.1739V37.7391H9.73913V35.3043Z" fill="#D9D9D9"/>
<path d="M19.4783 17.6522H21.913V20.087H19.4783V17.6522Z" fill="#D9D9D9"/>
<path d="M9.73913 32.8696H12.1739V35.3043H9.73913V32.8696Z" fill="#D9D9D9"/>
<path d="M19.4783 15.2174H21.913V17.6522H19.4783V15.2174Z" fill="#D9D9D9"/>
</svg>
