<svg width="69" height="69" viewBox="0 0 69 69" fill="none" xmlns="http://www.w3.org/2000/svg">
<path d="M34.5977 68.6003C53.3754 68.6003 68.5977 53.378 68.5977 34.6003C68.5977 15.8226 53.3754 0.600296 34.5977 0.600296C15.82 0.600296 0.597687 15.8226 0.597687 34.6003C0.597687 53.378 15.82 68.6003 34.5977 68.6003Z" fill="#686868"/>
<path d="M14 37.5652H16.4348V49.1305H14V37.5652Z" fill="#D9D9D9"/>
<path d="M33.4783 37.5652H35.913V49.1305H33.4783V37.5652Z" fill="#D9D9D9"/>
<path d="M23.7391 51.5652H26.1739V54H23.7391V51.5652Z" fill="#D9D9D9"/>
<path d="M21.3043 50.3478H23.7391V52.7826H21.3043V50.3478Z" fill="#D9D9D9"/>
<path d="M28.6087 50.3478H26.1739V52.7826H28.6087V50.3478Z" fill="#D9D9D9"/>
<path d="M18.8696 49.1304H21.3043V51.5652H18.8696V49.1304Z" fill="#D9D9D9"/>
<path d="M31.0435 49.1304H28.6087V51.5652H31.0435V49.1304Z" fill="#D9D9D9"/>
<path d="M16.4348 47.913H18.8696V50.3478H16.4348V47.913Z" fill="#D9D9D9"/>
<path d="M33.4783 47.913H31.0435V50.3478H33.4783V47.913Z" fill="#D9D9D9"/>
<path d="M23.7403 41.2172H26.1751V43.652H23.7403V41.2172Z" fill="#D9D9D9"/>
<path d="M21.3055 39.9998H23.7403V42.4346H21.3055V39.9998Z" fill="#D9D9D9"/>
<path d="M28.6099 39.9998H26.1751V42.4346H28.6099V39.9998Z" fill="#D9D9D9"/>
<path d="M18.8708 38.7824H21.3055V41.2172H18.8708V38.7824Z" fill="#D9D9D9"/>
<path d="M31.0447 38.7824H28.6099V41.2172H31.0447V38.7824Z" fill="#D9D9D9"/>
<path d="M16.436 37.565H18.8708V39.9998H16.436V37.565Z" fill="#D9D9D9"/>
<path d="M33.4795 37.565H31.0447V39.9998H33.4795V37.565Z" fill="#D9D9D9"/>
<path d="M23.7391 32.0868H26.1739V29.652H23.7391V32.0868Z" fill="#D9D9D9"/>
<path d="M21.3043 33.3042H23.7391V30.8694H21.3043V33.3042Z" fill="#D9D9D9"/>
<path d="M28.6087 33.3042H26.1739V30.8694H28.6087V33.3042Z" fill="#D9D9D9"/>
<path d="M18.8696 34.5216H21.3043V32.0868H18.8696V34.5216Z" fill="#D9D9D9"/>
<path d="M31.0435 34.5216H28.6087V32.0868H31.0435V34.5216Z" fill="#D9D9D9"/>
<path d="M16.4348 35.739H18.8696V33.3042H16.4348V35.739Z" fill="#D9D9D9"/>
<path d="M14 37.5652H16.4348V35.1303H14V37.5652Z" fill="#D9D9D9"/>
<path d="M33.4783 37.5652H35.913V35.1303H33.4783V37.5652Z" fill="#D9D9D9"/>
<path d="M33.4783 35.739H31.0435V33.3042H33.4783V35.739Z" fill="#D9D9D9"/>
<path d="M33.4795 37.565H35.9147V49.1303H33.48L33.4795 37.565Z" fill="#D9D9D9"/>
<path d="M52.9582 37.565H55.393V49.1303H52.9582V37.565Z" fill="#D9D9D9"/>
<path d="M43.2191 51.565H45.6539V53.9998H43.2191V51.565Z" fill="#D9D9D9"/>
<path d="M43.2191 47.3042H45.6539V49.739H43.2191V47.3042Z" fill="#D9D9D9"/>
<path d="M43.2191 44.8694H45.6539V47.3042H43.2191V44.8694Z" fill="#D9D9D9"/>
<path d="M40.7843 50.3477H43.2191V52.7824H40.7843V50.3477Z" fill="#D9D9D9"/>
<path d="M48.0887 50.3477H45.6539V52.7824H48.0887V50.3477Z" fill="#D9D9D9"/>
<path d="M38.3495 49.1303H40.7843V51.565H38.3495V49.1303Z" fill="#D9D9D9"/>
<path d="M50.5234 49.1303H48.0887V51.565H50.5234V49.1303Z" fill="#D9D9D9"/>
<path d="M35.9147 47.9129H38.3495V50.3477H35.9147V47.9129Z" fill="#D9D9D9"/>
<path d="M52.9582 47.9129H50.5234V50.3477H52.9582V47.9129Z" fill="#D9D9D9"/>
<path d="M43.2181 41.217H45.6529V43.6518H43.2181V41.217Z" fill="#D9D9D9"/>
<path d="M40.7833 39.9996H43.2181V42.4344H40.7833V39.9996Z" fill="#D9D9D9"/>
<path d="M48.0876 39.9996H45.6529V42.4344H48.0876V39.9996Z" fill="#D9D9D9"/>
<path d="M38.3485 38.7822H40.7833V41.217H38.3485V38.7822Z" fill="#D9D9D9"/>
<path d="M50.5224 38.7822H48.0876V41.217H50.5224V38.7822Z" fill="#D9D9D9"/>
<path d="M35.913 37.5652L38.3485 37.5648V39.9996H35.9137L35.913 37.5652Z" fill="#D9D9D9"/>
<path d="M52.9572 37.5648H50.5224V39.9996H52.9572V37.5648Z" fill="#D9D9D9"/>
<path d="M43.2209 32.0868H45.6557V29.652H43.2209V32.0868Z" fill="#D9D9D9"/>
<path d="M40.7861 33.3042H43.2209V30.8694H40.7861V33.3042Z" fill="#D9D9D9"/>
<path d="M48.0905 33.3042H45.6557V30.8694H48.0905V33.3042Z" fill="#D9D9D9"/>
<path d="M38.3513 34.5216H40.7861V32.0868H38.3513V34.5216Z" fill="#D9D9D9"/>
<path d="M50.5252 34.5216H48.0905V32.0868H50.5252V34.5216Z" fill="#D9D9D9"/>
<path d="M35.9166 35.739H38.3513V33.3042H35.9166V35.739Z" fill="#D9D9D9"/>
<path d="M33.4818 37.565H35.9166V35.1303H33.4818V37.565Z" fill="#D9D9D9"/>
<path d="M52.96 37.565H55.3948V35.1303H52.96V37.565Z" fill="#D9D9D9"/>
<path d="M52.96 35.739H50.5252V33.3042H52.96V35.739Z" fill="#D9D9D9"/>
<path d="M23.74 19.913H26.1748V31.4783H23.74V19.913Z" fill="#D9D9D9"/>
<path d="M43.2182 19.913H45.653V31.4783H43.2182V19.913Z" fill="#D9D9D9"/>
<path d="M33.4791 33.913H35.9139V36.3478H33.4791V33.913Z" fill="#D9D9D9"/>
<path d="M31.0443 32.6957H33.4791L33.4783 35.1303L31.0443 35.1304V32.6957Z" fill="#D9D9D9"/>
<path d="M38.3487 32.6957H35.9139L35.913 35.1303L38.3487 35.1304V32.6957Z" fill="#D9D9D9"/>
<path d="M28.6095 31.4783H31.0443V33.913H28.6095V31.4783Z" fill="#D9D9D9"/>
<path d="M40.7835 31.4783H38.3487V33.913H40.7835V31.4783Z" fill="#D9D9D9"/>
<path d="M26.1748 30.2609H28.6095V32.6957H26.1748V30.2609Z" fill="#D9D9D9"/>
<path d="M43.2182 30.2609H40.7835V32.6957H43.2182V30.2609Z" fill="#D9D9D9"/>
<path d="M33.4772 23.5652H35.912V26H33.4772V23.5652Z" fill="#D9D9D9"/>
<path d="M31.0425 22.3478H33.4772V24.7826H31.0425V22.3478Z" fill="#D9D9D9"/>
<path d="M38.3468 22.3478H35.912V24.7826H38.3468V22.3478Z" fill="#D9D9D9"/>
<path d="M28.6077 21.1304H31.0425V23.5652H28.6077V21.1304Z" fill="#D9D9D9"/>
<path d="M40.7816 21.1304H38.3468V23.5652H40.7816V21.1304Z" fill="#D9D9D9"/>
<path d="M26.1729 19.913H28.6077V22.3478H26.1729V19.913Z" fill="#D9D9D9"/>
<path d="M43.2164 19.913H40.7816V22.3478H43.2164V19.913Z" fill="#D9D9D9"/>
<path d="M33.48 14.4348H35.9148V12H33.48V14.4348Z" fill="#D9D9D9"/>
<path d="M31.0452 15.6522H33.48V13.2174H31.0452V15.6522Z" fill="#D9D9D9"/>
<path d="M38.3496 15.6522H35.9148V13.2174H38.3496V15.6522Z" fill="#D9D9D9"/>
<path d="M28.6104 16.8696H31.0452V14.4348H28.6104V16.8696Z" fill="#D9D9D9"/>
<path d="M40.7844 16.8696H38.3496V14.4348H40.7844V16.8696Z" fill="#D9D9D9"/>
<path d="M26.1757 18.087H28.6104V15.6522H26.1757V18.087Z" fill="#D9D9D9"/>
<path d="M23.74 19.913H26.1748L26.1757 17.4783H23.7409L23.74 19.913Z" fill="#D9D9D9"/>
<path d="M43.2182 19.913H45.653L45.6539 17.4783H43.2191L43.2182 19.913Z" fill="#D9D9D9"/>
<path d="M43.2191 18.087H40.7844V15.6522H43.2191V18.087Z" fill="#D9D9D9"/>
<path d="M23.7391 47.3043H26.1739V49.7391H23.7391V47.3043Z" fill="#D9D9D9"/>
<path d="M33.4783 29.6522H35.913V32.087H33.4783V29.6522Z" fill="#D9D9D9"/>
<path d="M23.7391 44.8696H26.1739V47.3043H23.7391V44.8696Z" fill="#D9D9D9"/>
<path d="M33.4783 27.2174H35.913V29.6522H33.4783V27.2174Z" fill="#D9D9D9"/>
</svg>
